<svg xmlns="http://www.w3.org/2000/svg" viewBox="0 0 443 131"><path fill="none" stroke="#000" stroke-miterlimit="10" d="M.5.5h200v130H.5zm242 0h200v130h-200zm15.5 14h28"/><path d="m279.763 17.681-.342-.941 6.156-2.24-6.156-2.24.342-.94 8.737 3.18z"/><path fill="none" stroke="#000" stroke-miterlimit="10" d="M258 31.5h28"/><path d="m279.763 34.681-.342-.941 6.156-2.24-6.156-2.24.342-.94 8.737 3.18z"/><path fill="none" stroke="#000" stroke-miterlimit="10" d="M258 48.5h28"/><path d="m279.763 51.681-.342-.941 6.156-2.24-6.156-2.24.342-.94 8.737 3.18z"/><path fill="none" stroke="#000" stroke-miterlimit="10" d="M258 65.5h28"/><path d="m279.763 68.681-.342-.941 6.156-2.24-6.156-2.24.342-.94 8.737 3.18z"/><path fill="none" stroke="#000" stroke-miterlimit="10" d="M258 82.5h28"/><path d="m279.763 85.681-.342-.941 6.156-2.24-6.156-2.24.342-.94 8.737 3.18z"/><path fill="none" stroke="#000" stroke-miterlimit="10" d="M258 99.5h28"/><path d="m279.763 102.681-.342-.941 6.156-2.24-6.156-2.24.342-.94 8.737 3.18z"/><path fill="none" stroke="#000" stroke-miterlimit="10" d="M258 116.5h28"/><path d="m279.763 119.681-.342-.941 6.156-2.24-6.156-2.24.342-.94 8.737 3.18z"/><path fill="none" stroke="#000" stroke-miterlimit="10" d="M304 14.5h28"/><path d="m325.763 17.681-.342-.941 6.156-2.24-6.156-2.24.342-.94 8.737 3.18z"/><path fill="none" stroke="#000" stroke-miterlimit="10" d="M304 31.5h28"/><path d="m325.763 34.681-.342-.941 6.156-2.24-6.156-2.24.342-.94 8.737 3.18z"/><path fill="none" stroke="#000" stroke-miterlimit="10" d="M304 48.5h28"/><path d="m325.763 51.681-.342-.941 6.156-2.24-6.156-2.24.342-.94 8.737 3.18z"/><path fill="none" stroke="#000" stroke-miterlimit="10" d="M304 65.5h28"/><path d="m325.763 68.681-.342-.941 6.156-2.24-6.156-2.24.342-.94 8.737 3.18z"/><path fill="none" stroke="#000" stroke-miterlimit="10" d="M304 82.5h28"/><path d="m325.763 85.681-.342-.941 6.156-2.24-6.156-2.24.342-.94 8.737 3.18z"/><path fill="none" stroke="#000" stroke-miterlimit="10" d="M304 99.5h28"/><path d="m325.763 102.681-.342-.941 6.156-2.24-6.156-2.24.342-.94 8.737 3.18z"/><path fill="none" stroke="#000" stroke-miterlimit="10" d="M304 116.5h28"/><path d="m325.763 119.681-.342-.941 6.156-2.24-6.156-2.24.342-.94 8.737 3.18z"/><path fill="none" stroke="#000" stroke-miterlimit="10" d="M350 14.5h28"/><path d="m371.763 17.681-.342-.941 6.156-2.24-6.156-2.24.342-.94 8.737 3.18z"/><path fill="none" stroke="#000" stroke-miterlimit="10" d="M350 31.5h28"/><path d="m371.763 34.681-.342-.941 6.156-2.24-6.156-2.24.342-.94 8.737 3.18z"/><path fill="none" stroke="#000" stroke-miterlimit="10" d="M350 48.5h28"/><path d="m371.763 51.681-.342-.941 6.156-2.24-6.156-2.24.342-.94 8.737 3.18z"/><path fill="none" stroke="#000" stroke-miterlimit="10" d="M350 65.5h28"/><path d="m371.763 68.681-.342-.941 6.156-2.24-6.156-2.24.342-.94 8.737 3.18z"/><path fill="none" stroke="#000" stroke-miterlimit="10" d="M350 82.5h28"/><path d="m371.763 85.681-.342-.941 6.156-2.24-6.156-2.24.342-.94 8.737 3.18z"/><path fill="none" stroke="#000" stroke-miterlimit="10" d="M350 99.5h28"/><path d="m371.763 102.681-.342-.941 6.156-2.24-6.156-2.24.342-.94 8.737 3.18z"/><path fill="none" stroke="#000" stroke-miterlimit="10" d="M350 116.5h28"/><path d="m371.763 119.681-.342-.941 6.156-2.24-6.156-2.24.342-.94 8.737 3.18z"/><path fill="none" stroke="#000" stroke-miterlimit="10" d="M396 14.5h28"/><path d="m417.763 17.681-.342-.941 6.156-2.24-6.156-2.24.342-.94 8.737 3.18z"/><path fill="none" stroke="#000" stroke-miterlimit="10" d="M396 31.5h28"/><path d="m417.763 34.681-.342-.941 6.156-2.24-6.156-2.24.342-.94 8.737 3.18z"/><path fill="none" stroke="#000" stroke-miterlimit="10" d="M396 48.5h28"/><path d="m417.763 51.681-.342-.941 6.156-2.24-6.156-2.24.342-.94 8.737 3.18z"/><path fill="none" stroke="#000" stroke-miterlimit="10" d="M396 65.5h28"/><path d="m417.763 68.681-.342-.941 6.156-2.24-6.156-2.24.342-.94 8.737 3.18z"/><path fill="none" stroke="#000" stroke-miterlimit="10" d="M396 82.5h28"/><path d="m417.763 85.681-.342-.941 6.156-2.24-6.156-2.24.342-.94 8.737 3.18z"/><path fill="none" stroke="#000" stroke-miterlimit="10" d="M396 99.5h28"/><path d="m417.763 102.681-.342-.941 6.156-2.24-6.156-2.24.342-.94 8.737 3.18z"/><path fill="none" stroke="#000" stroke-miterlimit="10" d="M396 116.5h28"/><path d="m417.763 119.681-.342-.941 6.156-2.24-6.156-2.24.342-.94 8.737 3.18z"/><path fill="none" stroke="#000" stroke-miterlimit="10" d="M30 71.5h28"/><path d="m51.763 74.681-.342-.941 6.156-2.24-6.156-2.24.342-.94L60.5 71.5z"/><path fill="none" stroke="#000" stroke-miterlimit="10" d="m17.717 116.419 24.969-10.723"/><path d="m38.51 110.951-.685-.729 4.772-4.487-6.54.37-.057-.998 9.283-.526z"/><path fill="none" stroke="#000" stroke-miterlimit="10" d="m15.941 31.941 17.318 20.941"/><path d="m27.04 50.354.507-.863 5.649 3.316L31 46.635l.942-.335 3.117 8.759z"/><path fill="none" stroke="#000" stroke-miterlimit="10" d="m58.102 59.943 22.461-15.296"/><path d="m77.467 50.604-.812-.585 3.827-5.317-6.349 1.613-.246-.968 9.011-2.29z"/><path fill="none" stroke="#000" stroke-miterlimit="10" d="m29.102 100.943 22.461-15.296"/><path d="m48.467 91.604-.812-.585 3.827-5.317-6.349 1.613-.246-.968 9.011-2.29z"/><path fill="none" stroke="#000" stroke-miterlimit="10" d="m52.178 9.958-6.663 26.345"/><path d="m43.881 29.792.995-.101.663 6.517 3.681-5.418.827.562-5.225 7.69z"/><path fill="none" stroke="#000" stroke-miterlimit="10" d="m56.549 39.01 25.274-9.982"/><path d="m77.494 34.158-.664-.749 4.902-4.345-6.547.177-.028-.999 9.294-.252z"/><path fill="none" stroke="#000" stroke-miterlimit="10" d="m137.682 25.291 23.221-14.115"/><path d="m157.504 16.965-.78-.626 4.096-5.112-6.424 1.283-.196-.98 9.118-1.821z"/><path fill="none" stroke="#000" stroke-miterlimit="10" d="m64.178 85.958-6.663 26.345"/><path d="m55.881 105.792.995-.101.663 6.517 3.681-5.418.827.562-5.225 7.69z"/><path fill="none" stroke="#000" stroke-miterlimit="10" d="m9.068 24.177 24.334-12.096"/><path d="m29.524 17.56-.724-.69 4.514-4.745-6.509.733-.112-.993 9.239-1.042z"/><path fill="none" stroke="#000" stroke-miterlimit="10" d="m106.247 96.355-10.411-25.1"/><path d="m101.038 75.496-.737.676-4.428-4.827.289 6.544-.999.044-.41-9.288z"/><path fill="none" stroke="#000" stroke-miterlimit="10" d="m188.247 84.355-10.411-25.1"/><path d="m183.038 63.496-.737.676-4.428-4.827.289 6.544-.999.044-.41-9.288z"/><path fill="none" stroke="#000" stroke-miterlimit="10" d="m184.204 97.464-26.638-5.37"/><path d="m163.989 90.144.149.99-6.476.979 5.591 3.413-.521.853-7.936-4.843z"/><path fill="none" stroke="#000" stroke-miterlimit="10" d="m173.609 46.881-14.691 22.861"/><path d="m159.438 63.049.976.221-1.443 6.39 5.212-3.967.606.795-7.398 5.631z"/><path fill="none" stroke="#000" stroke-miterlimit="10" d="m110.92 50.368-26.123 7.486"/><path d="m89.603 53.168.588.81-5.3 3.849 6.534.458-.07.997-9.275-.65z"/><path fill="none" stroke="#000" stroke-miterlimit="10" d="M84.163 70.593 81.15 97.599"/><path d="m78.644 91.372.973-.236 1.544 6.366 2.909-5.869.896.444-4.129 8.33z"/><path fill="none" stroke="#000" stroke-miterlimit="10" d="m117.343 76.545 2.096 27.093"/><path d="m115.812 97.99.911-.413 2.708 5.964 1.759-6.31.963.268-2.496 8.956z"/><path fill="none" stroke="#000" stroke-miterlimit="10" d="m71.216 122.383 20.442-17.904"/><path d="m89.307 110.766-.877-.482 3.155-5.741-6.106 2.37-.362-.931 8.667-3.365z"/><path fill="none" stroke="#000" stroke-miterlimit="10" d="M19.163 62.593 16.15 89.599"/><path d="m13.644 83.372.973-.236 1.544 6.366 2.909-5.869.896.444-4.129 8.33z"/><path fill="none" stroke="#000" stroke-miterlimit="10" d="m140.138 73.58-22.895-14.638"/><path d="m123.936 59.447-.218.976-6.393-1.428 3.979 5.203-.794.607-5.648-7.385z"/><path fill="none" stroke="#000" stroke-miterlimit="10" d="m85.52 16.735 27.138 1.386"/><path d="m106.593 20.996-.294-.957 6.262-1.923-6.033-2.551.389-.921 8.563 3.621z"/><path fill="none" stroke="#000" stroke-miterlimit="10" d="m125.52 118.735 27.138 1.386"/><path d="m146.593 122.996-.294-.957 6.262-1.923-6.033-2.551.389-.921 8.563 3.621z"/><path fill="none" stroke="#000" stroke-miterlimit="10" d="m195.138 49.58-22.895-14.638"/><path d="m178.936 35.447-.218.976-6.393-1.428 3.979 5.203-.794.607-5.648-7.385z"/><path fill="none" stroke="#000" stroke-miterlimit="10" d="m138.435 105.288 25.481 9.442"/><path d="m157.268 115.659.006-1.001 6.55.038-4.993-4.239.647-.762 7.087 6.017z"/><path fill="none" stroke="#000" stroke-miterlimit="10" d="m150.548 76.564-21.826 16.189"/><path d="m131.575 86.677.835.551-3.61 5.467 6.279-1.868.285.958-8.912 2.651z"/><path fill="none" stroke="#000" stroke-miterlimit="10" d="m188.548 8.564-21.826 16.189"/><path d="m169.575 18.677.835.551-3.61 5.467 6.279-1.868.285.958-8.912 2.651z"/><path fill="none" stroke="#000" stroke-miterlimit="10" d="m150.242 65.883 7.714-26.056"/><path d="m159.328 46.397-.999.061-.401-6.538-3.895 5.266-.804-.594 5.529-7.475z"/><path fill="none" stroke="#000" stroke-miterlimit="10" d="m125.114 112.119-26.475 6.125"/><path d="m103.681 113.813.545.839-5.492 3.57 6.502.795-.121.992-9.229-1.128z"/><path fill="none" stroke="#000" stroke-miterlimit="10" d="M122.089 43.852 97.471 32.345"/><path d="m104.173 31.966-.089.997-6.524-.577 4.627 4.636-.707.706-6.569-6.58z"/><path fill="none" stroke="#000" stroke-miterlimit="10" d="m154.23 27.019-19.439 18.988"/><path d="m136.797 39.601.902.434-2.838 5.904 5.969-2.699.411.911-8.471 3.83z"/><path fill="none" stroke="#000" stroke-miterlimit="10" d="m191.23 105.019-19.439 18.988"/><path d="m173.797 117.601.902.434-2.838 5.904 5.969-2.699.411.911-8.471 3.83z"/></svg>
