<svg xmlns="http://www.w3.org/2000/svg" viewBox="0 0 220 165"><defs><path id="a" stroke="none" fill="#000" transform="scale(.03333)" d="m.3 0-2.5 2.25L3.8 0l-6-2.25L.3 0Z"/></defs><path fill="#FFF" d="M0 0h220v165H0z"/><g fill="none" stroke="#000" stroke-width=".033" stroke-linejoin="round" stroke-linecap="round"><path d="m80 82.5 8.235-1.617 4.461-.819 3.459-.57 2.967-.423 2.658-.315 2.466-.222 2.343-.144 2.283-.069h2.256l2.28.069 2.346.144 2.466.222 2.658.315 2.967.423 3.459.57 4.461.819L140 82.5" stroke-width=".99"/><use href="#a" transform="scale(42 -42) rotate(-1.22 -86.288 -123.928)"/><path d="m80 82.5 5.244-3.477 3.012-1.923 2.415-1.464 2.112-1.2 1.911-1.008 1.776-.855 1.677-.726 1.602-.618 1.548-.519 1.506-.429 1.473-.345 1.452-.264 1.431-.186 1.425-.111 1.416-.039 1.416.039 1.422.111 1.434.186 1.452.264 1.473.345 1.506.429 1.548.519 1.602.618 1.677.726 1.773.855 1.914 1.008 2.112 1.2 2.415 1.464 3.012 1.923L140 82.5" stroke-width=".99"/><use href="#a" transform="scale(42 -42) rotate(-3.13 -28.937 -48.756)"/><path d="m80 82.5 3.165-4.698 1.929-2.748 1.614-2.187 1.47-1.872 1.38-1.644 1.32-1.467 1.284-1.317 1.26-1.188 1.245-1.077 1.233-.972 1.23-.873 1.224-.783 1.224-.696 1.224-.612 1.221-.531 1.227-.453 1.224-.375 1.227-.297 1.227-.222 1.23-.147 1.227-.075h1.23l1.23.075 1.227.147 1.227.222 1.227.297 1.227.375 1.224.453 1.224.531 1.221.612 1.224.696 1.224.783 1.23.876 1.233.969 1.245 1.077 1.26 1.191 1.284 1.317 1.32 1.464 1.38 1.644 1.47 1.872 1.614 2.187 1.929 2.748L140 82.5" stroke-width=".99"/><g transform="matrix(30 0 0 -30 110 82.5)"><use href="#a" transform="rotate(20.28 -2.218 -.447) scale(1.4)"/><use href="#a" transform="rotate(-27.46 1.664 -.227) scale(1.4)"/></g><path d="m80 82.5 1.113-5.472.753-3.372.699-2.802.69-2.469.702-2.244.729-2.073.756-1.929.789-1.809.825-1.701.858-1.599.897-1.509.93-1.416.963-1.332.996-1.251 1.029-1.167 1.059-1.086 1.086-1.008 1.113-.927 1.137-.849 1.158-.771 1.179-.693 1.197-.618 1.215-.537 1.227-.462 1.239-.384 1.248-.306 1.254-.231 1.263-.153 1.263-.078h1.266l1.263.078 1.26.153 1.257.231 1.248.306 1.239.384 1.227.462 1.215.537 1.197.618 1.179.693 1.158.771 1.137.849 1.113.927 1.086 1.008 1.059 1.086 1.029 1.167.996 1.251.963 1.332.93 1.416.897 1.509.858 1.599.825 1.701.789 1.809.756 1.929.729 2.073.702 2.244.69 2.469.699 2.802.753 3.372L140 82.5" stroke-width=".99"/><g transform="matrix(30 0 0 -30 110 82.5)"><use href="#a" transform="rotate(51.27 -1.34 -.197) scale(1.4)"/><use href="#a" transform="rotate(-56.26 1.236 -.127) scale(1.4)"/></g><path d="m80 82.5-1.092-5.613-.639-3.627-.48-3.132-.363-2.853-.27-2.676-.18-2.547-.099-2.445-.021-2.361.051-2.289.126-2.223.198-2.163.267-2.106.336-2.049.399-1.995.468-1.941.531-1.884.591-1.827.654-1.773.711-1.716.765-1.653.822-1.596.876-1.536.924-1.47.975-1.407 1.017-1.341 1.062-1.275 1.104-1.209 1.143-1.14 1.179-1.071 1.212-.999 1.245-.927 1.272-.858 1.302-.783 1.323-.711 1.344-.636 1.365-.564 1.38-.489 1.395-.411 1.407-.339 1.416-.264 1.425-.189 1.428-.114 1.431-.036 1.431.036 1.428.114 1.425.189 1.413.264 1.41.339 1.392.411 1.383.489 1.365.564 1.344.636 1.323.711 1.299.783 1.275.858 1.245.927 1.212.999 1.179 1.071 1.143 1.14 1.104 1.209 1.062 1.275 1.017 1.341.975 1.407.924 1.473.876 1.533.822 1.596.765 1.653.711 1.716.654 1.773.591 1.827.531 1.884.468 1.941.399 1.995.336 2.049.267 2.106.198 2.163.126 2.223.051 2.289-.021 2.361-.099 2.445-.18 2.547-.27 2.676-.363 2.853-.48 3.132-.639 3.627L140 82.5" stroke-width=".99"/><g transform="matrix(30 0 0 -30 110 82.5)"><use href="#a" transform="rotate(83.21 -1.128 -.1) scale(1.4)"/><use href="#a" transform="rotate(-3.16 41.184 1.138) scale(1.4)"/><use href="#a" transform="rotate(-86.12 1.1 -.07) scale(1.4)"/></g><path d="m80 82.5-3.432-5.184-2.25-3.513-1.926-3.144-1.725-2.955-1.581-2.85-1.458-2.787-1.356-2.748-1.257-2.721-1.167-2.703-1.083-2.694-.999-2.685-.915-2.679-.834-2.676-.756-2.67-.675-2.664-.597-2.661-.519-2.652-.441-2.646-.363-2.634-.285-2.625-.207-2.607-.132-2.595-.057-2.574.021-2.556.093-2.532.171-2.508.24-2.481.315-2.451.387-2.421.456-2.385m104.664 0 .456 2.385.387 2.421.315 2.451.24 2.481.171 2.508.093 2.532.021 2.556-.057 2.574-.132 2.595-.207 2.607-.285 2.625-.363 2.634-.441 2.646-.519 2.652-.597 2.661-.675 2.664-.756 2.67-.834 2.676-.915 2.679-.999 2.685-1.083 2.694-1.167 2.703-1.257 2.721-1.356 2.745-1.458 2.79-1.581 2.85-1.725 2.955-1.926 3.144-2.25 3.513L140 82.5" stroke-width=".99"/><g transform="matrix(30 0 0 -30 110 82.5)"><use href="#a" transform="rotate(112.68 -1.058 -.054) scale(1.4)"/><use href="#a" transform="rotate(90.46 -1.958 .175) scale(1.4)"/><use href="#a" transform="rotate(-92.42 1.922 .205) scale(1.4)"/><use href="#a" transform="rotate(-114.17 1.05 -.04) scale(1.4)"/></g><path d="m80 82.5-6.057-4.077-4.227-2.925-3.771-2.697-3.534-2.619-3.387-2.601-3.276-2.607-3.192-2.634-3.117-2.673-3.057-2.712-2.994-2.763-2.943-2.811-2.886-2.862-2.835-2.916-2.781-2.97-2.733-3.021-2.676-3.075-2.625-3.126-2.571-3.18L18.821 27l-2.46-3.276-2.403-3.327-2.346-3.375-2.286-3.42L7.1 10.14 4.934 6.633 2.831 3.087.791-.501m218.418 0-2.04 3.588-2.103 3.546-2.166 3.507-2.226 3.462-2.286 3.42-2.346 3.375-2.403 3.327-2.46 3.279-2.517 3.228-2.571 3.18-2.625 3.126-2.676 3.075-2.733 3.021-2.781 2.97-2.835 2.916-2.886 2.862-2.943 2.811-2.994 2.763-3.057 2.715-3.117 2.67-3.192 2.634-3.276 2.607-3.387 2.601-3.537 2.619-3.768 2.697-4.227 2.925L140 82.5" stroke-width=".99"/><g transform="matrix(30 0 0 -30 110 82.5)"><use href="#a" transform="rotate(140.22 -1.031 -.027) scale(1.4)"/><use href="#a" transform="rotate(125.83 -2.071 .186) scale(1.4)"/><use href="#a" transform="rotate(-126.56 2.063 .2) scale(1.4)"/><use href="#a" transform="rotate(-141.02 1.029 -.02) scale(1.4)"/></g><path d="m80 82.5-10.215-2.055-7.62-1.596-7.116-1.557-6.936-1.584-6.873-1.635-6.864-1.704-6.885-1.779-6.921-1.857-6.972-1.935-7.02-2.022-7.077-2.106m220.998 0-7.077 2.106-7.02 2.022-6.972 1.935-6.921 1.857-6.885 1.779-6.864 1.704-6.873 1.635-6.936 1.584-7.116 1.557-7.623 1.596L140 82.5" stroke-width=".99"/><g transform="matrix(30 0 0 -30 110 82.5)"><use href="#a" transform="rotate(166.86 -1.021 -.008) scale(1.4)"/><use href="#a" transform="rotate(164.31 -1.6 .035) scale(1.4)"/><use href="#a" transform="rotate(-164.46 1.6 .037) scale(1.4)"/><use href="#a" transform="rotate(-167.13 1.02 -.006) scale(1.4)"/></g><path d="m80 82.5-10.215 2.055-7.62 1.596-7.116 1.557-6.936 1.584-6.873 1.635-6.864 1.704-6.885 1.779-6.921 1.857-6.972 1.935-7.02 2.022-7.077 2.106m220.998 0-7.077-2.106-7.02-2.022-6.972-1.935-6.921-1.857-6.885-1.779-6.864-1.704-6.873-1.635-6.936-1.584-7.116-1.557-7.623-1.596L140 82.5" stroke-width=".99"/><g transform="matrix(30 0 0 -30 110 82.5)"><use href="#a" transform="rotate(-166.86 -1.021 .008) scale(1.4)"/><use href="#a" transform="rotate(-164.31 -1.6 -.035) scale(1.4)"/><use href="#a" transform="rotate(164.46 1.6 -.037) scale(1.4)"/><use href="#a" transform="rotate(167.13 1.02 .006) scale(1.4)"/></g><path d="m80 82.5-6.057 4.077-4.227 2.925-3.771 2.697-3.534 2.619-3.387 2.601-3.276 2.607-3.192 2.634-3.117 2.673-3.057 2.712-2.994 2.763-2.943 2.811-2.886 2.862-2.835 2.916-2.781 2.97-2.733 3.021-2.676 3.075-2.625 3.126-2.571 3.18L18.821 138l-2.46 3.276-2.403 3.327-2.346 3.375-2.286 3.42L7.1 154.86l-2.166 3.507-2.103 3.546-2.04 3.588m218.418 0-2.04-3.588-2.103-3.546-2.166-3.507-2.226-3.462-2.286-3.42-2.346-3.375-2.403-3.327-2.46-3.279-2.517-3.228-2.571-3.18-2.625-3.126-2.676-3.075-2.733-3.021-2.781-2.97-2.835-2.916-2.886-2.862-2.943-2.811-2.994-2.763-3.057-2.715-3.117-2.67-3.192-2.634-3.276-2.607-3.387-2.601-3.537-2.619-3.768-2.697-4.227-2.925L140 82.5" stroke-width=".99"/><g transform="matrix(30 0 0 -30 110 82.5)"><use href="#a" transform="rotate(-140.22 -1.031 .027) scale(1.4)"/><use href="#a" transform="rotate(-125.83 -2.071 -.186) scale(1.4)"/><use href="#a" transform="rotate(126.56 2.063 -.2) scale(1.4)"/><use href="#a" transform="rotate(141.02 1.029 .02) scale(1.4)"/></g><path d="m80 82.5-3.432 5.184-2.25 3.513-1.926 3.144-1.725 2.955-1.581 2.85-1.458 2.787-1.356 2.748-1.257 2.721-1.167 2.703-1.083 2.694-.999 2.685-.915 2.679-.834 2.676-.756 2.67-.675 2.664-.597 2.661-.519 2.652-.441 2.646-.363 2.634-.285 2.625-.207 2.607-.132 2.595-.057 2.574.021 2.556.093 2.532.171 2.508.24 2.481.315 2.451.387 2.421.456 2.385m104.664 0 .456-2.385.387-2.421.315-2.451.24-2.481.171-2.508.093-2.532.021-2.556-.057-2.574-.132-2.595-.207-2.607-.285-2.625-.363-2.634-.441-2.646-.519-2.652-.597-2.661-.675-2.664-.756-2.67-.834-2.676-.915-2.679-.999-2.685-1.083-2.694-1.167-2.703-1.257-2.721-1.356-2.745-1.458-2.79-1.581-2.85-1.725-2.955-1.926-3.144-2.25-3.513L140 82.5" stroke-width=".99"/><g transform="matrix(30 0 0 -30 110 82.5)"><use href="#a" transform="rotate(-112.68 -1.058 .054) scale(1.4)"/><use href="#a" transform="rotate(-90.46 -1.958 -.175) scale(1.4)"/><use href="#a" transform="rotate(92.42 1.922 -.205) scale(1.4)"/><use href="#a" transform="rotate(114.17 1.05 .04) scale(1.4)"/></g><path d="m80 82.5-1.092 5.613-.639 3.627-.48 3.132-.363 2.853-.27 2.676-.18 2.547-.099 2.445-.021 2.361.051 2.289.126 2.223.198 2.163.267 2.106.336 2.049.399 1.995.468 1.941.531 1.884.591 1.827.654 1.773.711 1.716.765 1.653.822 1.596.876 1.536.924 1.47.975 1.407 1.017 1.341 1.062 1.275 1.104 1.209 1.143 1.14 1.179 1.071 1.212.999 1.245.927 1.272.858 1.302.783 1.323.711 1.344.636 1.365.564 1.38.489 1.395.411 1.407.339 1.416.264 1.425.189 1.428.114 1.431.036 1.431-.036 1.428-.114 1.425-.189 1.413-.264 1.41-.339 1.392-.411 1.383-.489 1.365-.564 1.344-.636 1.323-.711 1.299-.783 1.275-.858 1.245-.927 1.212-.999 1.179-1.071 1.143-1.14 1.104-1.209 1.062-1.275 1.017-1.341.975-1.407.924-1.473.876-1.533.822-1.596.765-1.653.711-1.716.654-1.773.591-1.827.531-1.884.468-1.941.399-1.995.336-2.049.267-2.106.198-2.163.126-2.223.051-2.289-.021-2.361-.099-2.445-.18-2.547-.27-2.676-.363-2.853-.48-3.132-.639-3.627L140 82.5" stroke-width=".99"/><g transform="matrix(30 0 0 -30 110 82.5)"><use href="#a" transform="rotate(-83.21 -1.128 .1) scale(1.4)"/><use href="#a" transform="rotate(3.16 41.184 -1.138) scale(1.4)"/><use href="#a" transform="rotate(86.12 1.1 .07) scale(1.4)"/></g><path d="m80 82.5 1.113 5.472.753 3.372.699 2.802.69 2.469.702 2.244.729 2.073.756 1.929.789 1.809.825 1.701.858 1.599.897 1.509.93 1.416.963 1.332.996 1.251 1.029 1.167 1.059 1.086 1.086 1.008 1.113.927 1.137.849 1.158.771 1.179.693 1.197.618 1.215.537 1.227.462 1.239.384 1.248.306 1.254.231 1.263.153 1.263.078h1.266l1.263-.078 1.26-.153 1.257-.231 1.248-.306 1.239-.384 1.227-.462 1.215-.537 1.197-.618 1.179-.693 1.158-.771 1.137-.849 1.113-.927 1.086-1.008 1.059-1.086 1.029-1.167.996-1.251.963-1.332.93-1.416.897-1.509.858-1.599.825-1.701.789-1.809.756-1.929.729-2.073.702-2.244.69-2.469.699-2.802.753-3.372L140 82.5" stroke-width=".99"/><g transform="matrix(30 0 0 -30 110 82.5)"><use href="#a" transform="rotate(-51.27 -1.34 .197) scale(1.4)"/><use href="#a" transform="rotate(56.26 1.236 .127) scale(1.4)"/></g><path d="m80 82.5 3.165 4.698 1.929 2.748 1.614 2.187 1.47 1.872 1.38 1.644 1.32 1.467 1.284 1.317 1.26 1.188 1.245 1.077 1.233.972 1.23.873 1.224.783 1.224.696 1.224.612 1.221.531 1.227.453 1.224.375 1.227.297 1.227.222 1.23.147 1.227.075h1.23l1.23-.075 1.227-.147 1.227-.222 1.227-.297 1.227-.375 1.224-.453 1.224-.531 1.221-.612 1.224-.696 1.224-.783 1.23-.876 1.233-.969 1.245-1.077 1.26-1.191 1.284-1.317 1.32-1.464 1.38-1.644 1.47-1.872 1.614-2.187 1.929-2.748L140 82.5" stroke-width=".99"/><g transform="matrix(30 0 0 -30 110 82.5)"><use href="#a" transform="rotate(-20.28 -2.218 .447) scale(1.4)"/><use href="#a" transform="rotate(27.46 1.664 .227) scale(1.4)"/></g><path d="m80 82.5 5.244 3.477 3.012 1.923 2.415 1.464 2.112 1.2 1.911 1.008 1.776.855 1.677.726 1.602.618 1.548.519 1.506.429 1.473.345 1.452.264 1.431.186 1.425.111 1.416.039 1.416-.039 1.422-.111 1.434-.186 1.452-.264 1.473-.345 1.506-.429 1.548-.519 1.602-.618 1.677-.726 1.773-.855 1.914-1.008 2.112-1.2 2.415-1.464 3.012-1.923L140 82.5" stroke-width=".99"/><use href="#a" transform="scale(42 -42) rotate(3.13 42.96 46.791)"/><path d="m80 82.5 8.235 1.617 4.461.819 3.459.57 2.967.423 2.658.315 2.466.222 2.343.144 2.283.069h2.256l2.28-.069 2.346-.144 2.466-.222 2.658-.315 2.967-.423 3.459-.57 4.461-.819L140 82.5" stroke-width=".99"/><use href="#a" transform="scale(42 -42) rotate(1.22 98.206 121.964)"/></g><g transform="matrix(.78571 0 0 -.78571 80 82.5)"><circle fill="#EEE" r="14"/><circle r="14" fill="none" stroke="#000" stroke-width="2"/><path d="M2 2v6h-4V2h-6v-4h6v-6h4v6h6v4H2Z"/></g><g transform="matrix(.78571 0 0 -.78571 140 82.5)"><circle r="14"/><circle r="14" fill="#EEE" stroke="#000" stroke-width="2"/><path d="M8 2H-8v-4H8v4Z"/></g></svg>
