<svg xmlns="http://www.w3.org/2000/svg" viewBox="0 0 399.936 257.912" xml:space="preserve"><g fill="none" stroke="#000" stroke-miterlimit="10"><path d="m236.328 118.52 1.378.593"/><path stroke-dasharray="2.9545,2.9545" d="m240.42 120.281 31.728 13.651c20.47 9.514 19.455 39.954 19.455 39.954l.041 53.037"/><path d="m291.645 228.401.001 1.5"/></g><g fill="none" stroke="#000" stroke-miterlimit="10"><path d="M26.916-.493 28.293.1"/><path stroke-dasharray="2.9765,2.9765" d="m31.028 1.276 205.121 88.256c20.47 9.514 19.455 39.954 19.455 39.954l.02 26.012"/><path d="m255.624 156.986.002 1.5"/></g><path fill="none" stroke="#000" stroke-miterlimit="10" d="M26.916 0v229.5h346.5"/><text transform="translate(166.086 252.392)" font-family="'Concourse T3'" font-size="24">voltage</text><text transform="rotate(-90 83.894 63.735)" font-family="'Concourse T3'" font-size="24">current</text><path fill="none" stroke="#000" stroke-width="2" stroke-miterlimit="10" d="m26.916 28.507 209.233 90.025c20.47 9.514 19.455 39.954 19.455 39.954l.055 71.014"/><text transform="rotate(23.242 -7.995 247.339)" font-family="'Concourse T3'" font-size="18">increase amplitude</text><text transform="translate(297.459 183.254)"><tspan x="0" y="0" font-family="'Concourse T3'" font-size="18">increase</tspan><tspan x="0" y="16" font-family="'Concourse T3'" font-size="18">frequency</tspan></text></svg>