<svg xmlns="http://www.w3.org/2000/svg" viewBox="0 0 567.646 186.939"><g fill="none" stroke="#000" stroke-width="2" stroke-miterlimit="10"><path d="M.865 117.325c13.615-23.418 46.291-70.254 80.057 0s66.442 17.972 76.244 0"/><path d="M.865 150.325c13.615-23.418 46.291-70.254 80.057 0s66.442 17.972 76.244 0"/></g><text transform="translate(40.976 45.56)" font-family="'Concourse T3'" font-size="24">in phase</text><g fill="none" stroke="#000" stroke-width="2" stroke-miterlimit="10"><path d="M197.166 117.325c13.615-23.418 46.291-70.254 80.057 0s66.442 17.972 76.244 0"/><path d="M219.166 150.325c13.615-23.418 46.291-70.254 80.057 0s66.442 17.972 76.244 0"/></g><text transform="translate(226.578 31.16)"><tspan x="0" y="0" font-family="'Concourse T3'" font-size="24">partially</tspan><tspan x="0" y="28.8" font-family="'Concourse T3'" font-size="24">out of phase</tspan></text><g fill="none" stroke="#000" stroke-width="2" stroke-miterlimit="10"><path d="M410.467 117.325c13.615-23.418 46.291-70.254 80.057 0s66.442 17.972 76.245 0"/><path d="M410.467 143.834c13.615 23.418 46.291 70.254 80.057 0s66.442-17.972 76.245 0"/></g><text transform="translate(431.378 31.16)"><tspan x="0" y="0" font-family="'Concourse T3'" font-size="24">completely</tspan><tspan x="0" y="28.8" font-family="'Concourse T3'" font-size="24">out of phase</tspan></text></svg>