<svg xmlns="http://www.w3.org/2000/svg" viewBox="0 0 313.774 131.395"><path fill="none" stroke="#000" stroke-miterlimit="10" d="M69.113 19 99.791 7.463 118.113 14v59l-.322-.038-30.678 11.536"/><path fill="none" stroke="#000" stroke-miterlimit="10" d="m97.113 68.007 10-3.623V31.492l-10 3.623zm-10 16.491-18-6.498V19l18 6.498zm0-59 31-11.498m33 54 44.922-16.871 18.322 6.537v39l-.322-.039-44.922 16.871"/><path fill="none" stroke="#000" stroke-miterlimit="10" d="m179.113 97.007 24.244-8.957V75.157l-24.244 8.958zm-10 16.491-18-6.498V68l18 6.498zm0-39 45.244-16.832"/><path fill="none" stroke="#000" stroke-width="2" stroke-miterlimit="10" d="m4.779 18.513 64.332 23.415"/><path fill="none" stroke="#000" stroke-miterlimit="10" d="M25.113 3v45"/><path d="m21.932 8.737.94.342 2.241-6.156 2.24 6.156.939-.342L25.113 0zm0 33.526.94-.342 2.241 6.156 2.24-6.156.939.342L25.113 51z"/><path fill="none" stroke="#000" stroke-miterlimit="10" d="m10.538 8.13 29.149 34.74"/><path d="m11.901 14.703.94-.342-2.24-6.156 5.672 3.276.5-.866-8.051-4.649zm21.55 25.683.501-.867 5.673 3.276-2.241-6.156.94-.342 3.18 8.737z"/><path fill="none" stroke="#000" stroke-miterlimit="10" d="M39.687 8.13 10.538 42.87"/><path d="m33.451 10.614.501.867 5.673-3.276-2.241 6.156.94.342 3.18-8.737zm-21.55 25.683.94.342-2.24 6.156 5.672-3.276.5.866-8.051 4.649z"/><path fill="none" stroke="#000" stroke-miterlimit="10" d="M47.442 21.563 2.783 29.437"/><path d="m41.069 19.457-.174.985 6.451 1.138-5.673 3.275.5.865 8.052-4.648zM8.052 25.279l.5.866-5.673 3.275 6.451 1.138-.174.984L0 29.928z"/><path fill="none" stroke="#000" stroke-miterlimit="10" d="M134.113 43v45"/><path d="m130.932 48.737.94.342 2.241-6.156 2.24 6.156.939-.342L134.113 40zm0 33.526.94-.342 2.241 6.156 2.24-6.156.939.342L134.113 91z"/><path fill="none" stroke="#000" stroke-width="2" stroke-miterlimit="10" d="m182.046 83.033 125.093 45.53"/><path d="m313.774 130.978-10.74.417 3.609-3.013-.828-4.626z"/><path fill="none" stroke="#000" stroke-width="2" stroke-miterlimit="10" d="m97.115 52.12 53.998 19.654"/><text transform="rotate(19.999 -138.57 685.868)" font-family="'Concourse T3'" font-size="24">nothing</text></svg>