<svg xmlns="http://www.w3.org/2000/svg" viewBox="0 0 519.855 234.766"><text transform="translate(45.804 228.57)" font-family="'Concourse T3'" font-size="24">31ยบ</text><text transform="rotate(-30.996 308.468 -191.816)" font-family="'Concourse T3'" font-size="18">68.5 kg</text><path fill="none" stroke="#000" stroke-width="2" stroke-miterlimit="10" d="m124.289 112.884 57.432-34.505 20.6 34.288-57.432 34.505z"/><text transform="rotate(-30.996 370.08 13.676)" font-family="'Concourse T3'" font-size="24">[fwd]</text><circle fill="none" stroke="#000" stroke-miterlimit="10" cx="321.426" cy="17.098" r="7.5"/><path d="m318.926 19.846 5-5m0 5-5-5M321.365 42.314 1.804 234.266h327M191.254 94.093l123.319-73.948" fill="none" stroke="#000" stroke-miterlimit="10"/><circle fill="none" stroke="#000" stroke-miterlimit="10" cx="430.796" cy="84.915" r="25"/><circle cx="430.538" cy="85.173" r="3"/><path fill="none" stroke="#000" stroke-miterlimit="10" d="m430.106 84.932 40.607-24.399"/><path d="m470.213 65.154-.559-3.985-3.256-2.364 9.432-1.347z"/><path fill="none" stroke="#000" stroke-miterlimit="10" d="m474.132 58.477 40.606-24.399"/><path d="m514.238 38.699-.559-3.984-3.255-2.364 9.431-1.347z"/><path fill="none" stroke="#000" stroke-miterlimit="10" d="m430.106 84.932-31.681-52.727"/><path d="m403.046 32.705-3.985.559-2.364 3.256-1.347-9.432z"/><text transform="translate(421.81 208.416)" font-family="'Equity Text B'" font-weight="bold" font-size="24" letter-spacing="-2">F</text><text transform="matrix(.583 0 0 .583 434.36 212.408)" font-family="'Equity Text B'" font-size="24">g</text><text transform="translate(444.726 56.01)" font-family="'Equity Text B'" font-weight="bold" font-size="24" letter-spacing="-1">F</text><text transform="matrix(.583 0 0 .583 458.478 60.002)" font-family="'Equity Text B'" font-size="24">f</text><text transform="translate(484.476 31.004)" font-family="'Equity Text B'" font-weight="bold" font-size="24" letter-spacing="-1">F</text><text transform="matrix(.583 0 0 .583 498.228 34.996)" font-family="'Equity Text B'" font-size="24">T</text><text transform="translate(378.804 20.472)" font-family="'Equity Text B'" font-weight="bold" font-size="24" letter-spacing="-1">F</text><text transform="matrix(.583 0 0 .583 392.556 24.464)" font-family="'Equity Text B'" font-size="24">N</text><path fill="none" stroke="#000" stroke-miterlimit="10" d="M430.304 85.766v92"/><path d="m426.601 174.636 3.703 1.574 3.703-1.574-3.703 8.779z"/></svg>