<svg xmlns="http://www.w3.org/2000/svg" baseProfile="full" viewBox="0 0 490 200"><defs><path id="a" stroke="none" fill="#000" transform="scale(.01)" d="m-2 2 6-2-6-2v4Z"/></defs><g fill="none" stroke="#000" stroke-width=".01" stroke-linejoin="round" stroke-linecap="round"><path d="m245 145.5 15.1.1 13.63.27 11.64.42 9.8.53 8.31.64 7.1.73 6.13.81-9.88 8.11-5.84 4.52-5.17 3.7-4.84 3.18-4.64 2.77-4.53 2.41-4.44 2.1-4.39 1.81-4.36 1.52-4.32 1.26-4.3 1-4.3.74-4.28.5-4.28.24-4.29.01-4.27-.25-4.29-.5-4.29-.74-4.3-1-4.33-1.26-4.35-1.52-4.39-1.81-4.44-2.1-4.53-2.41-4.64-2.77-4.84-3.18-5.17-3.7-5.84-4.52-9.88-8.11 6.13-.81 7.1-.73 8.3-.64 9.81-.53 11.64-.42 13.63-.27 15.1-.1Z" stroke-width="1"/><use href="#a" transform="scale(-200 200) rotate(-1.93 26.525 36.82)"/><path d="m170.08 200.5-2.72-5.09-2.62-5.39-2.52-5.75-2.47-6.22-2.47-6.92-2.88-8.88-2.61-8.22-1.24-3.38-.7-1.68 1.59-.91 2.56-1.23 3.06-1.19 3.62-1.14 4.24-1.07 4.98-.99 5.84-.91 6.91-.81 8.23-.71 9.91-.6 12.09-.47 14.61-.32 16.68-.12 16.78.1 14.85.3 12.3.46 10.09.58 8.36.7 7.02.8 5.94.9 5.05.98 4.32 1.06 3.68 1.13 3.12 1.18 2.58 1.21 1.94 1.1-.66 1.42-1.19 3.19-4.74 14.86-2.53 7.32-2.44 6.4-2.5 5.89-2.01 4.34-2.08 4.13-2.13 3.95" stroke-width="1"/><g transform="matrix(100 0 0 -100 245 100)"><use href="#a" transform="rotate(108.56 -.174 -.677) scale(2)"/><use href="#a" transform="rotate(-109.86 .18 -.67) scale(2)"/></g><path d="m112.22 200.5 2.1-7.45 2.3-7.26 2.47-6.96 2.58-6.56 2.63-6.03 2.61-5.39 2.53-4.69 2.41-3.99 2.29-3.33 2.19-2.78 2.15-2.34 2.17-2.02 2.28-1.78 2.47-1.61 2.74-1.48 3.08-1.36 3.5-1.27 4-1.18 4.6-1.07 5.36-.97 6.3-.88 7.47-.76 9.07-.65 11.28-.53 14.31-.4 17.9-.23h19.98l17.9.23 14.31.4 11.28.53 9.07.65 7.47.76 6.3.88 5.36.97 4.6 1.07 4 1.18 3.5 1.27 3.08 1.36 2.74 1.48 2.47 1.61 2.28 1.78 2.17 2.02 2.15 2.34 2.19 2.78 2.29 3.33 2.41 3.99 2.53 4.69 2.61 5.39 2.63 6.03 2.58 6.56 2.47 6.96 2.3 7.26 2.1 7.45" stroke-width="1"/><g transform="matrix(100 0 0 -100 245 100)"><use href="#a" transform="rotate(65 -.074 -1.292) scale(2)"/><use href="#a" transform="matrix(2 0 0 2 0 -.275)"/><use href="#a" transform="rotate(-66.87 .093 -1.259) scale(2)"/></g><path d="m38.53 200.5 8.13-8.35 8.16-8.03 8.15-7.67 8.06-7.26 7.9-6.78 7.65-6.26 7.32-5.66 6.9-5.05 6.46-4.42 6.01-3.83 5.59-3.29 5.25-2.81 5-2.4 4.85-2.05 4.8-1.77 4.87-1.54 5.07-1.33 5.42-1.15 5.96-1.01 6.73-.87 7.79-.73 9.41-.62 11.85-.49 15.66-.38 21.08-.22h24.8l21.08.22 15.66.38 11.85.49 9.41.62 7.79.73 6.73.87 5.96 1.01 5.42 1.15 5.07 1.33 4.87 1.54 4.8 1.77 4.85 2.05 5 2.4 5.25 2.81 5.59 3.29 6.01 3.83 6.46 4.42 6.9 5.05 7.32 5.66 7.65 6.26 7.9 6.78 8.06 7.26 8.15 7.67 8.16 8.03 8.13 8.35" stroke-width="1"/><g transform="matrix(100 0 0 -100 245 100)"><use href="#a" transform="rotate(40.65 .056 -2.673) scale(2)"/><use href="#a" transform="matrix(2 0 0 2 0 -.165)"/><use href="#a" transform="rotate(-41.54 -.035 -2.619) scale(2)"/></g><path d="m-.5 137.2 20.9-5.47 19.93-4.96 18.65-4.39 17.03-3.76 15.16-3.1 13.31-2.48 11.74-1.95 10.59-1.51 9.95-1.18 9.88-.9 10.51-.7 12.07-.53 15.54-.39 22.89-.27 37.35-.11 37.35.11 22.89.27 15.54.39 12.07.53 10.51.7 9.88.9 9.95 1.18 10.59 1.51 11.74 1.95 13.31 2.48 15.16 3.1 17.03 3.76 18.65 4.39 19.93 4.96 20.9 5.47" stroke-width="1"/><g transform="matrix(100 0 0 -100 245 100)"><use href="#a" transform="rotate(13.25 .091 -8.617) scale(2)"/><use href="#a" transform="rotate(-.13 -24.24 -.028) scale(2)"/><use href="#a" transform="rotate(-13.25 -.091 -8.617) scale(2)"/></g><path d="m-.5 62.8 20.9 5.47 19.93 4.96 18.65 4.39 17.03 3.76 15.16 3.1 13.31 2.48 11.74 1.95 10.59 1.51 9.95 1.18 9.88.9 10.51.7 12.07.53 15.54.39 22.89.27 37.35.11 37.35-.11 22.89-.27 15.54-.39 12.07-.53 10.51-.7 9.88-.9 9.95-1.18 10.59-1.51 11.74-1.95 13.31-2.48 15.16-3.1 17.03-3.76 18.65-4.39 19.93-4.96 20.9-5.47" stroke-width="1"/><g transform="matrix(100 0 0 -100 245 100)"><use href="#a" transform="rotate(-13.25 .091 8.617) scale(2)"/><use href="#a" transform="rotate(.13 -24.24 .028) scale(2)"/><use href="#a" transform="rotate(13.25 -.091 8.617) scale(2)"/></g><path d="m38.53-.5 8.13 8.35 8.16 8.03 8.15 7.67 8.06 7.26 7.9 6.78 7.65 6.26 7.32 5.66 6.9 5.05 6.46 4.42 6.01 3.83 5.59 3.29 5.25 2.81 5 2.4 4.85 2.05 4.8 1.77 4.87 1.54L148.7 78l5.42 1.15 5.96 1.01 6.73.87 7.79.73 9.41.62 11.85.49 15.66.38 21.08.22h24.8l21.08-.22 15.66-.38 11.85-.49 9.41-.62 7.79-.73 6.73-.87 5.96-1.01L341.3 78l5.07-1.33 4.87-1.54 4.8-1.77 4.85-2.05 5-2.4 5.25-2.81 5.59-3.29 6.01-3.83 6.46-4.42 6.9-5.05 7.32-5.66 7.65-6.26 7.9-6.78 8.06-7.26 8.15-7.67 8.16-8.03 8.13-8.35" stroke-width="1"/><g transform="matrix(100 0 0 -100 245 100)"><use href="#a" transform="rotate(-40.65 .056 2.673) scale(2)"/><use href="#a" transform="matrix(2 0 0 2 0 .165)"/><use href="#a" transform="rotate(41.54 -.035 2.619) scale(2)"/></g><path d="m112.22-.5 2.1 7.45 2.3 7.26 2.47 6.96 2.58 6.56 2.63 6.03 2.61 5.39 2.53 4.69 2.41 3.99 2.29 3.33 2.19 2.78 2.15 2.34 2.17 2.02 2.28 1.78 2.47 1.61 2.74 1.48 3.08 1.36 3.5 1.27 4 1.18 4.6 1.07 5.36.97 6.3.88 7.47.76 9.07.65 11.28.53 14.31.4 17.9.23h19.98l17.9-.23 14.31-.4 11.28-.53 9.07-.65 7.47-.76 6.3-.88 5.36-.97 4.6-1.07 4-1.18 3.5-1.27 3.08-1.36 2.74-1.48 2.47-1.61 2.28-1.78 2.17-2.02 2.15-2.34 2.19-2.78 2.29-3.33 2.41-3.99 2.53-4.69 2.61-5.39 2.63-6.03 2.58-6.56 2.47-6.96 2.3-7.26 2.1-7.45" stroke-width="1"/><g transform="matrix(100 0 0 -100 245 100)"><use href="#a" transform="rotate(-65 -.074 1.292) scale(2)"/><use href="#a" transform="matrix(2 0 0 2 0 .275)"/><use href="#a" transform="rotate(66.87 .093 1.259) scale(2)"/></g><path d="m170.08-.5-2.72 5.08-2.62 5.4-2.52 5.75-2.46 6.21-2.48 6.92-2.88 8.88-2.61 8.23-1.23 3.38-.71 1.68 1.62.93 2.56 1.22 3.07 1.19 3.62 1.14 4.25 1.07 4.98.99 5.85.91 6.92.81 8.24.71 9.92.59 12.11.47 14.62.32 16.71.12 16.78-.1 14.83-.3 12.28-.46 10.07-.59 8.34-.7 7-.8 5.93-.89 5.05-.99 4.31-1.06 3.68-1.13 3.11-1.18 2.58-1.21L340.2 51l-.66-1.42-1.19-3.18-4.74-14.89-2.53-7.3-2.44-6.4-2.5-5.89-2.01-4.34-2.08-4.13-2.13-3.95" stroke-width="1"/><g transform="matrix(100 0 0 -100 245 100)"><use href="#a" transform="rotate(-108.56 -.174 .677) scale(2)"/><use href="#a" transform="rotate(109.86 .18 .67) scale(2)"/></g><path d="m245 54.5 15.11-.1 13.62-.27 11.64-.42 9.81-.53 8.3-.64 7.1-.73 6.13-.81-9.88-8.11-5.84-4.52-5.17-3.7-4.84-3.18-4.64-2.77-4.53-2.41-4.44-2.1-4.39-1.81-4.36-1.52-4.32-1.26-4.3-1-4.3-.74-4.28-.5-4.28-.24-4.29-.01-4.27.25-4.29.5-4.29.74-4.3 1-4.33 1.26-4.35 1.52-4.39 1.81-4.44 2.1-4.53 2.41-4.64 2.77-4.84 3.18-5.17 3.7-5.84 4.52-9.88 8.11 6.13.81 7.1.73 8.3.64 9.81.53 11.64.42 13.63.27 15.1.1Z" stroke-width="1"/><use href="#a" transform="scale(-200 200) rotate(1.93 -3.16 -36.32)"/></g><g transform="matrix(1 0 0 -1 161 51)"><circle r="12.5" fill="#FFF" stroke="#000" stroke-width="3"/><circle r="2.6"/></g><g transform="matrix(1 0 0 -1 189 51)"><circle r="12.5" fill="#FFF" stroke="#000" stroke-width="3"/><circle r="2.6"/></g><g transform="matrix(1 0 0 -1 217 51)"><circle r="12.5" fill="#FFF" stroke="#000" stroke-width="3"/><circle r="2.6"/></g><g transform="matrix(1 0 0 -1 245 51)"><circle r="12.5" fill="#FFF" stroke="#000" stroke-width="3"/><circle r="2.6"/></g><g transform="matrix(1 0 0 -1 273 51)"><circle r="12.5" fill="#FFF" stroke="#000" stroke-width="3"/><circle r="2.6"/></g><g transform="matrix(1 0 0 -1 301 51)"><circle r="12.5" fill="#FFF" stroke="#000" stroke-width="3"/><circle r="2.6"/></g><g transform="matrix(1 0 0 -1 329 51)"><circle r="12.5" fill="#FFF" stroke="#000" stroke-width="3"/><circle r="2.6"/></g><g transform="matrix(1 0 0 -1 161 149)" stroke="#000" stroke-width="3"><circle r="12.5" fill="#FFF"/><path d="M-8.8-8.8 8.8 8.8m-17.6 0L8.8-8.8" fill="none"/></g><g transform="matrix(1 0 0 -1 189 149)" stroke="#000" stroke-width="3"><circle r="12.5" fill="#FFF"/><path d="M-8.8-8.8 8.8 8.8m-17.6 0L8.8-8.8" fill="none"/></g><g transform="matrix(1 0 0 -1 217 149)" stroke="#000" stroke-width="3"><circle r="12.5" fill="#FFF"/><path d="M-8.8-8.8 8.8 8.8m-17.6 0L8.8-8.8" fill="none"/></g><g transform="matrix(1 0 0 -1 245 149)" stroke="#000" stroke-width="3"><circle r="12.5" fill="#FFF"/><path d="M-8.8-8.8 8.8 8.8m-17.6 0L8.8-8.8" fill="none"/></g><g transform="matrix(1 0 0 -1 273 149)" stroke="#000" stroke-width="3"><circle r="12.5" fill="#FFF"/><path d="M-8.8-8.8 8.8 8.8m-17.6 0L8.8-8.8" fill="none"/></g><g transform="matrix(1 0 0 -1 301 149)" stroke="#000" stroke-width="3"><circle r="12.5" fill="#FFF"/><path d="M-8.8-8.8 8.8 8.8m-17.6 0L8.8-8.8" fill="none"/></g><g transform="matrix(1 0 0 -1 329 149)" stroke="#000" stroke-width="3"><circle r="12.5" fill="#FFF"/><path d="M-8.8-8.8 8.8 8.8m-17.6 0L8.8-8.8" fill="none"/></g></svg>
