<svg xmlns="http://www.w3.org/2000/svg" viewBox="0 0 699 278"><text transform="translate(106.84 32.526)" style="font: 24px 'Concourse 3'">frame A</text><text transform="translate(478.78 32.526)" style="font: 24px 'Concourse 3'">frame B</text><path fill="none" stroke="#000" stroke-width="2" stroke-miterlimit="10" d="M1 55h288v192H1z"/><path fill="none" stroke="#000" stroke-miterlimit="10" d="m176.671 205.196-16.214 34.769-16.213-34.769"/><ellipse cx="160.321" cy="212.411" rx="6.714" ry="2.877"/><path fill="none" stroke="#000" stroke-miterlimit="10" d="M169.857 219.82a41.114 41.114 0 0 1-9.399 1.082c-3.232 0-6.377-.374-9.394-1.081m-5.197-11.143a35.953 35.953 0 0 1 14.591-3.071c4.982 0 9.729 1.01 14.046 2.836m-59.257-2.943 7.253 10.488V240.5h10v-24.512l6.03-10.488zm-65.198 40.319c0 11.416-8.588 20.67-19.182 20.67s-19.182-9.254-19.182-20.67m268.548 0c0 11.416-8.588 20.67-19.182 20.67s-19.182-9.254-19.182-20.67m-118.092-45.177c0-4.553 6-4.553 6-9.107 0-4.555-6-4.555-6-9.109 0-4.555 6-4.555 6-9.111 0-4.555-6-4.555-6-9.109 0-4.555 6-4.555 6-9.11s-6-4.555-6-9.111c0-4.556 6-4.556 6-9.112 0-4.555-6-4.555-6-9.111 0-4.555 6-4.555 6-9.109s-6-4.555-6-9.109c0-4.555 6-4.555 6-9.109 0-4.556-6-4.556-6-9.112 0-4.558 6-4.558 6-9.115 0-4.556-6-4.556-6-9.112 0-4.559 6-4.559 6-9.118 0-4.168-5.014-4.526-5.875-8.039"/><path d="m129.335 57.134-.378.926-4.563-1.869-1.53 4.688-.952-.312 1.866-5.708z"/><path fill="none" stroke="#000" stroke-miterlimit="10" d="M158.43 199.563c.862-3.508 5.875-3.866 5.875-8.028 0-4.555-6-4.555-6-9.109 0-4.555 6-4.555 6-9.111 0-4.555-6-4.555-6-9.109 0-4.555 6-4.555 6-9.11s-6-4.555-6-9.111c0-4.556 6-4.556 6-9.112 0-4.555-6-4.555-6-9.111 0-4.555 6-4.555 6-9.109s-6-4.555-6-9.109c0-4.555 6-4.555 6-9.109 0-4.556-6-4.556-6-9.112 0-4.558 6-4.558 6-9.115 0-4.556-6-4.556-6-9.112 0-4.559 6-4.559 6-9.118s-6-4.559-6-9.118"/><path d="m163.865 198.373-.378-.927-4.564 1.865-1.527-4.689-.951.31 1.861 5.711z"/><path fill="none" stroke="#000" stroke-miterlimit="10" d="M98.086 57.685v140.132"/><path d="m94.905 63.596.941.342 2.24-6.156 2.24 6.156.94-.342-3.18-8.737zm0 128.309.941-.341 2.24 6.155 2.24-6.155.94.341-3.18 8.737z"/><path fill="none" stroke="#000" stroke-miterlimit="10" d="M89 200.5h19m274.376-50.629 10.101 16.093m108.899-90.093 10.101 16.093"/><text transform="translate(57.852 132.787)" style="font: 24px 'Equity B'">∆</text><text transform="translate(70.812 132.787)" style="font: italic 24px 'Equity B'">d</text><text transform="matrix(.583 0 0 .583 81.564 136.78)" style="font: 24px 'Equity B'">A</text><text transform="translate(405.032 118.75)" style="font: 24px 'Equity B'">∆</text><text transform="translate(417.992 118.75)" style="font: italic 24px 'Equity B'">d</text><text transform="matrix(.583 0 0 .583 429.343 122.743)" style="font: 24px 'Equity B'">B</text><path fill="none" stroke="#CCC" stroke-width="2" stroke-miterlimit="10" d="M333 98h144v96H333z"/><path fill="none" stroke="#CCC" stroke-miterlimit="10" d="m420.835 172.935-8.106 17.385-8.107-17.385"/><ellipse fill="#CCC" cx="412.661" cy="176.543" rx="3.357" ry="1.439"/><path fill="none" stroke="#CCC" stroke-miterlimit="10" d="M417.428 180.247a20.555 20.555 0 0 1-4.7.541c-1.616 0-3.189-.187-4.697-.541m-2.598-5.571a17.986 17.986 0 0 1 7.295-1.536c2.491 0 4.864.505 7.023 1.418m-29.627-1.058 3.376 4.831V190.5h5v-12.169l3.265-4.831zm-32.599 19.747c0 5.708-4.294 10.335-9.591 10.335s-9.591-4.627-9.591-10.335m134.274 0c0 5.708-4.294 10.335-9.591 10.335s-9.591-4.627-9.591-10.335"/><path fill="none" stroke="#CCC" stroke-width="2" stroke-miterlimit="10" d="M444 98h144v96H444z"/><path fill="none" stroke="#CCC" stroke-miterlimit="10" d="m531.835 172.935-8.106 17.385-8.107-17.385"/><ellipse fill="#CCC" cx="523.661" cy="176.543" rx="3.357" ry="1.439"/><path fill="none" stroke="#CCC" stroke-miterlimit="10" d="M528.428 180.247a20.555 20.555 0 0 1-4.7.541c-1.616 0-3.189-.187-4.697-.541m-2.598-5.571a17.986 17.986 0 0 1 7.295-1.536c2.491 0 4.864.505 7.023 1.418m-29.627-1.058 3.376 4.831V190.5h5v-12.169l3.265-4.831zm-32.599 19.747c0 5.708-4.294 10.335-9.591 10.335s-9.591-4.627-9.591-10.335m134.274 0c0 5.708-4.294 10.335-9.591 10.335s-9.591-4.627-9.591-10.335"/><path fill="none" stroke="#000" stroke-miterlimit="10" d="M394.644 168.616c3.736-2.277 6.226 1.809 9.962-.468 3.737-2.277 1.247-6.363 4.984-8.64 3.738-2.278 6.227 1.808 9.965-.47 3.737-2.277 1.247-6.363 4.984-8.64s6.227 1.808 9.964-.469c3.738-2.278 1.248-6.363 4.985-8.641 3.738-2.278 6.228 1.808 9.966-.47 3.736-2.277 1.246-6.362 4.981-8.639 3.737-2.277 6.227 1.808 9.964-.469s1.247-6.363 4.985-8.641c3.737-2.278 6.227 1.808 9.964-.469 3.738-2.278 1.248-6.364 4.987-8.642 3.74-2.279 6.229 1.807 9.969-.472 3.738-2.278 1.249-6.364 4.987-8.642 3.741-2.28 6.231 1.806 9.972-.474 3.404-2.075 1.649-5.645 4.125-7.989"/><path d="m514.936 101.691-.994.114-.558-4.899-4.845.914-.185-.983 5.902-1.113z"/><path fill="none" stroke="#CCC" stroke-width="2" stroke-miterlimit="10" d="M554 98h144v96H554z"/><path fill="none" stroke="#CCC" stroke-miterlimit="10" d="m641.835 172.935-8.106 17.385-8.107-17.385"/><ellipse fill="#CCC" cx="633.661" cy="176.543" rx="3.357" ry="1.439"/><path fill="none" stroke="#CCC" stroke-miterlimit="10" d="M638.428 180.247a20.555 20.555 0 0 1-4.7.541c-1.616 0-3.189-.187-4.697-.541m-2.598-5.571a17.986 17.986 0 0 1 7.295-1.536c2.491 0 4.864.505 7.023 1.418m-29.627-1.058 3.376 4.831V190.5h5v-12.169l3.265-4.831zm-32.599 19.747c0 5.708-4.294 10.335-9.591 10.335s-9.591-4.627-9.591-10.335m134.274 0c0 5.708-4.294 10.335-9.591 10.335s-9.591-4.627-9.591-10.335"/><path fill="none" stroke="#000" stroke-miterlimit="10" d="M632.046 172.02c-2.442-2.335-.693-5.867-4.063-7.937-3.707-2.277-6.191 1.767-9.898-.511-3.708-2.278-1.223-6.322-4.931-8.599-3.707-2.277-6.191 1.767-9.898-.511-3.707-2.277-1.223-6.321-4.93-8.599-3.708-2.278-6.192 1.766-9.899-.511-3.708-2.278-1.224-6.322-4.932-8.6-3.706-2.277-6.19 1.767-9.896-.509-3.707-2.277-1.223-6.321-4.93-8.599-3.707-2.277-6.192 1.766-9.899-.511-3.707-2.278-1.223-6.321-4.93-8.599-3.708-2.278-6.193 1.766-9.901-.512-3.71-2.279-1.225-6.323-4.935-8.602-3.708-2.278-6.193 1.766-9.901-.512-3.711-2.28-1.227-6.324-4.938-8.603s-6.195 1.764-9.906-.516"/><path d="m633.624 166.717-.994-.12-.584 4.896-4.841-.94-.19.982 5.896 1.145z"/><path fill="none" stroke="#000" stroke-width="2" stroke-miterlimit="10" d="M315 0v278"/><path fill="none" stroke="#000" stroke-miterlimit="10" d="M531.713 231.72 515.5 266.49l-16.213-34.77"/><ellipse cx="515.364" cy="238.935" rx="6.714" ry="2.877"/><path fill="none" stroke="#000" stroke-miterlimit="10" d="M524.899 246.344a41.114 41.114 0 0 1-9.399 1.082c-3.232 0-6.377-.374-9.394-1.081m-5.197-11.143a35.953 35.953 0 0 1 14.591-3.071c4.982 0 9.729 1.01 14.046 2.836"/><path fill="none" stroke="#CCC" stroke-width="2" stroke-miterlimit="10" d="M333 88.9h49.939"/><path fill="#CCC" d="m390 88.9-9.949 4.065 2.361-4.065-2.361-4.064z"/><path fill="none" stroke="#000" stroke-miterlimit="10" d="m504.152 85.616-114.659 70.546"/><path d="m497.45 86.005.202.98 6.416-1.318L500 90.801l.783.621 5.775-7.286zm-104.59 64.35.784.622-4.068 5.133 6.416-1.317.201.979-9.107 1.87z"/></svg>
