<svg xmlns="http://www.w3.org/2000/svg" viewBox="0 0 666 145.008"><text transform="translate(105.72 20.16)" style="font: 24px 'Concourse 3'">transverse</text><text transform="translate(451.421 20.16)" style="font: 24px 'Concourse 3'">longitudinal</text><g fill="none" stroke="#000" stroke-miterlimit="10"><path d="M0 84.334h306"/><path stroke-width="2" d="M11.668 84.681c11.797-30.668 56.504-115.698 101.211-.353s74.993 33.905 86.53.353 54.802-113.592 94.923 0"/></g><g fill="none" stroke="#000" stroke-miterlimit="10"><path d="M350.5 50.834v69"/><path stroke-width="2" d="M362 50.834v69"/><path stroke-width="3" d="M374.5 50.834v69"/><path stroke-width="4" d="M386 50.834v69"/><path stroke-width="5" d="M398.5 50.834v69"/><path stroke-width="6" d="M410 50.834v69"/><path stroke-width="7" d="M422.5 50.834v69"/><path stroke-width="8" d="M434 50.834v69"/><path stroke-width="9" d="M446.5 50.834v69"/><path stroke-width="8" d="M458 50.834v69"/><path stroke-width="7" d="M470.5 50.834v69"/><path stroke-width="6" d="M482 50.834v69"/><path stroke-width="5" d="M494.5 50.834v69"/><path stroke-width="4" d="M506 50.834v69"/><path stroke-width="3" d="M518.5 50.834v69"/><path stroke-width="2" d="M530 50.834v69"/><path d="M542.5 50.834v69"/><path stroke-width="2" d="M554 50.834v69"/><path stroke-width="3" d="M566.5 50.834v69"/><path stroke-width="4" d="M578 50.834v69"/><path stroke-width="5" d="M590.5 50.834v69"/><path stroke-width="6" d="M602 50.834v69"/><path stroke-width="7" d="M614.5 50.834v69"/><path stroke-width="8" d="M626 50.834v69"/><path stroke-width="9" d="M638.5 50.834v69"/><path stroke-width="8" d="M650 50.834v69"/><path stroke-width="7" d="M662.5 50.834v69"/></g></svg>
