<svg xmlns="http://www.w3.org/2000/svg" viewBox="0 0 533.692 237.306" xml:space="preserve"><path fill="none" stroke="#000" stroke-miterlimit="10" d="M5.5 31v192.5H233"/><path d="M2.297 34.154 6 32.581l3.703 1.573L6 25.375zm227.425 193.425 1.573-3.704-1.573-3.703 8.778 3.703z"/><text transform="translate(242.292 230.898)" font-family="'Equity Text B'" font-style="italic" font-size="24">t</text><text transform="translate(0 20.472)" font-family="'Equity Text B'" font-weight="bold" font-size="24">v</text><circle cx="72.862" cy="176.969" r="2.5"/><circle cx="193.862" cy="92.269" r="2.5"/><text transform="translate(35.19 159.889)" font-family="'Equity Text B'" font-size="24">(</text><text transform="translate(43.638 159.889)" font-family="'Equity Text B'" font-style="italic" font-size="24">t</text><text transform="matrix(.583 0 0 .583 50.861 165.881)" font-family="'Equity Text B'" font-size="24">1</text><text transform="translate(56.556 159.889)" font-family="'Equity Text B'" font-size="24">,</text><text transform="translate(62.965 159.889)" font-family="'Equity Text B'" font-weight="bold" font-size="24" letter-spacing="-1">v</text><text transform="matrix(.583 0 0 .583 73.764 165.881)" font-family="'Equity Text B'" font-size="24">1</text><text transform="translate(79.46 159.889)" font-family="'Equity Text B'" font-size="24">)</text><text transform="translate(150.713 76.484)" font-family="'Equity Text B'" font-size="24">(</text><text transform="translate(159.161 76.484)" font-family="'Equity Text B'" font-style="italic" font-size="24">t</text><text transform="matrix(.583 0 0 .583 166.385 82.477)" font-family="'Equity Text B'" font-size="24">2</text><text transform="translate(173.437 76.484)" font-family="'Equity Text B'" font-size="24">,</text><text transform="translate(179.845 76.484)" font-family="'Equity Text B'" font-weight="bold" font-size="24" letter-spacing="-1">v</text><text transform="matrix(.583 0 0 .583 190.644 82.477)" font-family="'Equity Text B'" font-size="24">2</text><text transform="translate(197.697 76.484)" font-family="'Equity Text B'" font-size="24">)</text><g fill="none" stroke="#000" stroke-miterlimit="10"><path d="m75.862 180.969 1.639-1.147"/><path stroke-dasharray="4.1057,4.1057" d="m80.864 177.467 112.678-78.874"/><path d="m195.224 97.416 1.638-1.147"/></g><path fill="none" stroke="#000" stroke-width="2" stroke-miterlimit="10" d="M6 223.875 238.5 60.889"/><text transform="translate(141.143 157.672)" font-family="'Equity Text B'" font-weight="bold" font-size="24">a</text><text transform="matrix(.583 0 0 .583 152.591 163.665)" font-family="'Equity Text B'" font-size="24">av</text><path fill="#EEE" d="M352 126h125v98H352z"/><path fill="none" stroke="#000" stroke-miterlimit="10" d="M288.5 31v192.5H516"/><path d="M285.297 34.154 289 32.581l3.703 1.573L289 25.375zm227.425 193.425 1.573-3.704-1.573-3.703 8.778 3.703z"/><text transform="translate(525.292 230.898)" font-family="'Equity Text B'" font-style="italic" font-size="24">t</text><text transform="translate(283 20.472)" font-family="'Equity Text B'" font-weight="bold" font-size="24">a</text><circle cx="352.562" cy="126" r="2.5"/><circle cx="476.562" cy="126" r="2.5"/><text transform="translate(328.5 112.375)" font-family="'Equity Text B'" font-size="24">(</text><text transform="translate(336.948 112.375)" font-family="'Equity Text B'" font-style="italic" font-size="24">t</text><text transform="matrix(.583 0 0 .583 344.172 118.368)" font-family="'Equity Text B'" font-size="24">1</text><text transform="translate(349.866 112.375)" font-family="'Equity Text B'" font-size="24">,</text><text transform="translate(356.275 112.375)" font-family="'Equity Text B'" font-weight="bold" font-size="24">a</text><text transform="matrix(.583 0 0 .583 367.722 118.368)" font-family="'Equity Text B'" font-size="24">1</text><text transform="translate(373.417 112.375)" font-family="'Equity Text B'" font-size="24">)</text><text transform="translate(451.167 112.376)" font-family="'Equity Text B'" font-size="24">(</text><text transform="translate(459.615 112.376)" font-family="'Equity Text B'" font-style="italic" font-size="24">t</text><text transform="matrix(.583 0 0 .583 466.838 118.368)" font-family="'Equity Text B'" font-size="24">2</text><text transform="translate(473.89 112.376)" font-family="'Equity Text B'" font-size="24">,</text><text transform="translate(480.298 112.376)" font-family="'Equity Text B'" font-weight="bold" font-size="24">a</text><text transform="matrix(.583 0 0 .583 491.746 118.368)" font-family="'Equity Text B'" font-size="24">2</text><text transform="translate(498.798 112.376)" font-family="'Equity Text B'" font-size="24">)</text><text transform="translate(401.028 184.753)"><tspan x="0" y="0" font-family="'Equity Text B'" font-size="24">∆</tspan><tspan x="12.96" y="0" font-family="'Equity Text B'" font-weight="bold" font-size="24">v</tspan></text><path fill="none" stroke="#000" stroke-width="2" stroke-miterlimit="10" d="M289 126h232"/><path fill="none" stroke="#000" stroke-miterlimit="10" stroke-dasharray="4" d="M476.5 126v98m-124-98v98"/></svg>