<svg xmlns="http://www.w3.org/2000/svg" viewBox="0 0 373.047 226.565"><path fill="none" stroke="#000" stroke-miterlimit="10" d="M137.716 223.836c0-6.259 5.074-11.333 11.333-11.333s11.333 5.074 11.333 11.333"/><path fill="none" stroke="#000" stroke-miterlimit="10" d="M123.374 223.836c0-14.18 11.495-25.675 25.675-25.675 14.18 0 25.675 11.495 25.675 25.675"/><path fill="none" stroke="#000" stroke-miterlimit="10" d="M107.674 223.836c0-22.851 18.524-41.375 41.375-41.375s41.375 18.524 41.375 41.375"/><path fill="none" stroke="#000" stroke-miterlimit="10" d="M91.731 223.836c0-31.656 25.662-57.318 57.318-57.318s57.318 25.662 57.318 57.318"/><path fill="none" stroke="#000" stroke-miterlimit="10" d="M76.783 223.836c0-39.912 32.355-72.266 72.266-72.266s72.266 32.355 72.266 72.266"/><path fill="none" stroke="#000" stroke-miterlimit="10" d="M60.814 223.836c0-48.731 39.504-88.235 88.235-88.235s88.235 39.504 88.235 88.235"/><path fill="none" stroke="#000" stroke-miterlimit="10" d="M45.751 223.836c0-57.05 46.248-103.298 103.298-103.298s103.298 46.248 103.298 103.298"/><path fill="none" stroke="#000" stroke-miterlimit="10" d="M28.797 223.836c0-66.414 53.839-120.252 120.252-120.252s120.252 53.839 120.252 120.252"/><path fill="none" stroke="#000" stroke-width="2" stroke-miterlimit="10" d="M12.045 223.836c0-75.665 61.339-137.004 137.004-137.004s137.004 61.339 137.004 137.004"/><path fill="none" d="M7.045 218.836c0-75.665 61.339-137.004 137.004-137.004s137.004 61.339 137.004 137.004"/><text transform="rotate(-50.906 161.867 34.756)"><tspan x="0" y="0" style="font: 24px 'Concourse 3'">w</tspan><tspan x="15.002" y=".089" style="font: 24px 'Concourse 3'" rotate="5.287">a</tspan><tspan x="25.459" y="1.05" style="font: 24px 'Concourse 3'" rotate="9.6">v</tspan><tspan x="35.563" y="2.742" style="font: 24px 'Concourse 3'" rotate="13.911">e</tspan><tspan x="45.823" y="5.358" style="font: 24px 'Concourse 3'" rotate="17.176"> </tspan><tspan x="50.702" y="6.833" style="font: 24px 'Concourse 3'" rotate="19.807">f</tspan><tspan x="57.715" y="9.352" style="font: 24px 'Concourse 3'" rotate="22.926">r</tspan><tspan x="64.577" y="12.167" style="font: 24px 'Concourse 3'" rotate="26.895">o</tspan><tspan x="74.782" y="17.334" style="font: 24px 'Concourse 3'" rotate="31.658">n</tspan><tspan x="84.331" y="23.292" style="font: 24px 'Concourse 3'" rotate="35.541">t</tspan></text><path fill="none" stroke="#000" stroke-width="2" stroke-miterlimit="10" d="M148.547 87V7"/><path d="m148.547 0 4.065 9.949-4.065-2.361-4.065 2.361z"/><path fill="none" stroke="#000" stroke-width="2" stroke-miterlimit="10" d="M285.547 223h80"/><path d="m373.047 222.5-9.949 4.065 2.36-4.065-2.36-4.064z"/><path fill="none" stroke="#000" stroke-width="2" stroke-miterlimit="10" d="m242.788 124.259 56.525-56.526"/><path d="m304.306 62.741-4.16 9.91-1.206-4.544-4.543-1.205z"/><path fill="none" stroke="#000" stroke-miterlimit="10" d="M148.547 80.5h6.5V87m92.75 32.154 4.596 4.596-4.596 4.596m37.75 88.154h6.5v6.5"/><text transform="translate(180.043 60.468)" style="font: 24px 'Concourse 3'">wave rays</text></svg>
