<svg xmlns="http://www.w3.org/2000/svg" viewBox="0 0 442.024 310.327"><text transform="translate(51.865 20.16)" style="font: 24px 'Concourse 3'">constructive</text><text transform="translate(316.025 20.16)" style="font: 24px 'Concourse 3'">destructive</text><g fill="none" stroke="#000" stroke-miterlimit="10"><path d="M33.024 93.827h150"/><path stroke-width="2" d="M52.024 94.327v-32h69v64h46v-32"/></g><text transform="translate(0 175.306)" style="font: bold 36px 'Concourse 3'">+</text><g fill="none" stroke="#000" stroke-miterlimit="10"><path d="M33.024 179.827h150"/><path stroke-width="2" d="M70.024 180.327v-32h32v32"/></g><text transform="translate(0 272.307)" style="font: bold 36px 'Concourse 3'">=</text><g fill="none" stroke="#000" stroke-miterlimit="10"><path d="M33.024 276.827h150"/><path stroke-width="2" d="M52.024 277.327v-32h18v-32h32v32h19v64h46v-32"/></g><g fill="none" stroke="#000" stroke-miterlimit="10"><path d="M292.024 93.827h150"/><path stroke-width="2" d="M311.024 94.327v-32h69v64h46v-32"/></g><text transform="translate(259 175.306)" style="font: bold 36px 'Concourse 3'">+</text><g fill="none" stroke="#000" stroke-miterlimit="10"><path d="M292.024 150.827h150"/><path stroke-width="2" d="M329.024 151.327v64h32v-64"/></g><text transform="translate(259 272.307)" style="font: bold 36px 'Concourse 3'">=</text><g fill="none" stroke="#000" stroke-miterlimit="10"><path d="M292.024 276.827h150"/><path stroke-width="2" d="M426.024 277.327v32h-46v-64h-19v64h-32v-64h-18v32"/></g><path fill="none" stroke="#000" stroke-miterlimit="10" d="m221.012 0-.488 310.327"/></svg>
