<svg xmlns="http://www.w3.org/2000/svg" viewBox="0 0 403.738 232"><text transform="translate(0 28.918)" font-family="'Concourse T3'" font-size="24">[H</text><text transform="matrix(.583 0 0 .583 25.44 20.925)" font-family="'Concourse T3'" font-size="24">+</text><text transform="translate(32.855 28.918)" font-family="'Concourse T3'" font-size="24">]</text><text transform="translate(63.077 171.184)" font-family="'Concourse T3'" font-size="16">add H</text><text transform="matrix(.583 0 0 .583 100.516 165.856)" font-family="'Concourse T3'" font-size="16">+</text><text transform="translate(38.974 59.903)" font-family="'Concourse T3'" font-weight="bold" font-size="16">normal solution</text><text transform="translate(146.032 219.227)" font-family="'Equity Text B'" font-style="italic" font-size="24">t</text><path fill="none" stroke="#000" stroke-miterlimit="10" d="m19.749 37-.489 175.5h120.978"/><path fill="none" stroke="#000" stroke-miterlimit="10" d="M19.238 154.5h62.5v-72h58.5"/><text transform="translate(240.044 28.918)" font-family="'Concourse T3'" font-size="24">[H</text><text transform="matrix(.583 0 0 .583 265.483 20.925)" font-family="'Concourse T3'" font-size="24">+</text><text transform="translate(272.9 28.918)" font-family="'Concourse T3'" font-size="24">]</text><text transform="translate(303.12 171.184)" font-family="'Concourse T3'" font-size="16">add H</text><text transform="matrix(.583 0 0 .583 340.56 165.856)" font-family="'Concourse T3'" font-size="16">+</text><text transform="translate(355.941 131.697)" font-family="'Concourse T3'" font-size="16">LCP</text><text transform="translate(279.018 59.903)" font-family="'Concourse T3'" font-weight="bold" font-size="16">buffer solution</text><text transform="translate(386.076 219.227)" font-family="'Equity Text B'" font-style="italic" font-size="24">t</text><path fill="none" stroke="#000" stroke-miterlimit="10" d="m259.771 37-.468 175.5h120.935"/><path fill="none" stroke="#000" stroke-miterlimit="10" d="M259.238 154.5h62.5V82.542s17.218 61.095 58.5 61.095"/><text transform="translate(176.988 101.403)" font-family="'Concourse T3'" font-weight="bold" font-size="50">vs</text><path fill="none" stroke="#000" stroke-miterlimit="10" d="M196.738 73V0m0 232V106"/></svg>