<svg xmlns="http://www.w3.org/2000/svg" viewBox="0 0 693.565 221.382"><text transform="translate(88.652 123.987)" style="font: 46px 'Concourse 3'">C</text><text transform="translate(0 38.64)" style="font: 46px 'Concourse 3'">H</text><text transform="matrix(.583 0 0 .583 31.74 46.957)" style="font: 46px 'Concourse 3'">3</text><text transform="translate(45.685 38.64)" style="font: 46px 'Concourse 3'">C</text><text transform="translate(220.521 38.64)" style="font: 46px 'Concourse 3'">CH</text><text transform="matrix(.583 0 0 .583 282.62 46.957)" style="font: 46px 'Concourse 3'">3</text><text transform="translate(223.521 210.552)" style="font: 46px 'Concourse 3'">H</text><text transform="translate(42.478 210.552)" style="font: 46px 'Concourse 3'">H</text><text transform="translate(180.826 123.987)" style="font: 46px 'Concourse 3'">C</text><path fill="none" stroke="#000" stroke-width="2" stroke-miterlimit="10" d="M123.521 106.303h50m-50 6h50m-82.5-22.349-25-43.302m25 81-25 43.302m166-126.302-25 43.302m25 85-25-43.302"/><text transform="translate(137.098 66.303)" style="font: italic 24px 'Equity B'">cis</text><text transform="translate(485.652 123.987)" style="font: 46px 'Concourse 3'">C</text><text transform="translate(438.87 38.64)" style="font: 46px 'Concourse 3'">H</text><text transform="translate(617.521 38.64)" style="font: 46px 'Concourse 3'">CH</text><text transform="matrix(.583 0 0 .583 679.62 46.957)" style="font: 46px 'Concourse 3'">3</text><text transform="translate(620.521 210.552)" style="font: 46px 'Concourse 3'">H</text><text transform="translate(397 210.553)" style="font: 46px 'Concourse 3'">H</text><text transform="matrix(.583 0 0 .583 428.74 218.87)" style="font: 46px 'Concourse 3'">3</text><text transform="translate(442.685 210.553)" style="font: 46px 'Concourse 3'">C</text><text transform="translate(577.826 123.987)" style="font: 46px 'Concourse 3'">C</text><path fill="none" stroke="#000" stroke-width="2" stroke-miterlimit="10" d="M520.521 106.303h50m-50 6h50m-82.5-22.349-25-43.302m25 81-25 43.302m166-126.302-25 43.302m25 85-25-43.302"/><text transform="translate(522.062 66.303)" style="font: italic 24px 'Equity B'">trans</text></svg>
