<svg xmlns="http://www.w3.org/2000/svg" viewBox="0 0 584.228 364.328"><path fill="none" stroke="#000" stroke-miterlimit="10" d="M36.728 6v323.5h541.5"/><path d="m33.024 8.778 3.704-1.573 3.703 1.573L36.728 0zm542.425 324.425 1.573-3.703-1.573-3.703 8.779 3.703z"/><path fill="none" stroke="#AAA" stroke-miterlimit="10" d="m366.208 200.353-3.48 3.48m0 9 7.313-7.313m-7.313 16.313 11.168-11.168m-11.168 20.168 15.05-15.05m-15.05 24.05 18.964-18.964m-18.964 27.964 22.916-22.916m-22.916 31.916 26.909-26.909m-26.909 35.909 30.948-30.948m-30.948 39.948 35.037-35.037m-35.037 44.037 39.181-39.181m-39.181 48.181 43.386-43.386m-43.386 52.386 47.655-47.655m-47.655 56.655 51.995-51.995m-51.995 60.995 56.408-56.408m-56.492 65.492 60.986-60.986M372.061 329.5l56.15-56.15m-47.15 56.15 51.823-51.823M390.061 329.5l47.596-47.596M399.061 329.5l43.472-43.472M408.061 329.5l39.463-39.463M417.061 329.5l35.573-35.573M426.061 329.5l31.811-31.811M435.061 329.5l28.186-28.186M444.061 329.5l24.71-24.71m-15.71 24.71 21.392-21.392M462.061 329.5l18.243-18.243m-9.243 18.243 15.278-15.278m-6.278 15.278 12.511-12.511m-3.511 12.511 9.958-9.958m-.958 9.958 7.637-7.637m1.363 7.637 5.569-5.569m4.709 4.291 2.501-2.501"/><text transform="rotate(-90 109.555 89.395)" font-family="'Concourse T3'" font-size="24">number of particles</text><text transform="translate(446.891 358.808)" font-family="'Concourse T3'" font-size="24">kinetic energy</text><text transform="translate(346.225 71.474)"><tspan x="0" y="0" font-family="'Concourse T3'" font-size="20">activation</tspan><tspan x="0" y="18" font-family="'Concourse T3'" font-size="20">energy</tspan></text><text transform="translate(179.225 48.334)" font-family="'Concourse T3'" font-size="20" letter-spacing="-1">T</text><text transform="matrix(.583 0 0 .583 188.925 51.994)" font-family="'Concourse T3'" font-size="20">1</text><text transform="translate(255.891 89.334)" font-family="'Concourse T3'" font-size="20" letter-spacing="-1">T</text><text transform="matrix(.583 0 0 .583 265.591 92.994)" font-family="'Concourse T3'" font-size="20">2</text><path fill="none" stroke="#000" stroke-width="2" stroke-miterlimit="1" d="M536.807 329.5c-47.159-.087-137.712-27.599-195.798-68.013-28.899-20.107-54.242-62.446-69.111-98.458-25.181-60.986-43.494-103.696-83.83-103.696-54.622 0-75.826 89.003-90.756 139.129S36.728 329.5 36.728 329.5s45.458-20.113 75.71-52.887 79.832-184.874 153.781-176.47S398.152 329.5 554.454 329.5"/><g fill="none" stroke="#000" stroke-miterlimit="10"><path d="M362.728 99v3"/><path stroke-dasharray="5,5" d="M362.728 107v218"/><path d="M362.728 328v2"/></g></svg>