<svg xmlns="http://www.w3.org/2000/svg" viewBox="0 0 647.749 165.845"><text transform="translate(250.438 121.133)" font-family="'Concourse T3'" font-size="24">CH</text><text transform="matrix(.583 0 0 .583 282.837 127.125)" font-family="'Concourse T3'" font-size="24">3</text><text transform="translate(312.125 73.362)" font-family="'Concourse T3'" font-size="24">CH</text><text transform="matrix(.583 0 0 .583 344.524 79.354)" font-family="'Concourse T3'" font-size="24">3</text><text transform="translate(432.524 121.133)" font-family="'Concourse T3'" font-size="24">CH</text><text transform="matrix(.583 0 0 .583 464.923 127.125)" font-family="'Concourse T3'" font-size="24">3</text><text transform="translate(368.253 121.133)" font-family="'Concourse T3'" font-size="24">CH</text><text transform="matrix(.583 0 0 .583 400.653 127.125)" font-family="'Concourse T3'" font-size="24">2</text><text transform="translate(313.078 121.133)" font-family="'Concourse T3'" font-size="24">CH</text><path fill="none" stroke="#000" stroke-miterlimit="10" d="M291 113.427h18m39 0h18m46 0h18m-108.5-35.5v22"/><text transform="translate(37.632 122.215)" font-family="'Concourse T3'" font-size="24">C</text><text transform="translate(79.033 122.215)" font-family="'Concourse T3'" font-size="24">C</text><text transform="translate(79.033 57.24)" font-family="'Concourse T3'" font-size="24">C</text><text transform="translate(120.435 122.215)" font-family="'Concourse T3'" font-size="24">C</text><text transform="translate(161.836 122.215)" font-family="'Concourse T3'" font-size="24">C</text><text transform="translate(202.548 121.316)" font-family="'Concourse T3'" font-size="18">H</text><text transform="translate(0 121.316)" font-family="'Concourse T3'" font-size="18">H</text><text transform="translate(42.038 79.54)" font-family="'Concourse T3'" font-size="18">H</text><text transform="translate(42.038 161.706)" font-family="'Concourse T3'" font-size="18">H</text><text transform="translate(80.953 161.706)" font-family="'Concourse T3'" font-size="18">H</text><text transform="translate(124.004 79.54)" font-family="'Concourse T3'" font-size="18">H</text><text transform="translate(124.004 54.884)" font-family="'Concourse T3'" font-size="18">H</text><text transform="translate(80.953 15.12)" font-family="'Concourse T3'" font-size="18">H</text><text transform="translate(42.038 54.884)" font-family="'Concourse T3'" font-size="18">H</text><text transform="translate(124.004 161.706)" font-family="'Concourse T3'" font-size="18">H</text><text transform="translate(165.405 79.54)" font-family="'Concourse T3'" font-size="18">H</text><text transform="translate(165.405 161.706)" font-family="'Concourse T3'" font-size="18">H</text><path fill="none" stroke="#000" stroke-miterlimit="10" d="M57 114.427h18m-17-66h18m-61 66h18m54.5-53.5v41m42-18v18m42-18v18m-124-18v18m0 25v18m40-18v18m42-18v18m42-18v18m-84-128v18m11.5 79.5h18m-18-66h22m20 66h18m22 0h18"/><path fill="none" stroke="#000" stroke-width="2" stroke-miterlimit="10" d="m517.346 120.423 43.301-25 43.301 25 43.301-25m-86.602 0v-50"/></svg>