<svg xmlns="http://www.w3.org/2000/svg" viewBox="0 0 486.208 359.496" xml:space="preserve"><path fill="none" stroke="#CCC" stroke-miterlimit="10" d="M420.5 32v301M370.5 32v301M320.5 32v301M270.5 32v301M220.5 32v301M170.5 32v301M120.5 32v301M70.5 32v301M471 82.5H20M471 132.5H20M471 182.5H20M471 232.5H20M471 282.5H20"/><path fill="none" stroke="#000" stroke-miterlimit="10" d="M465 332.5H20.5V38"/><path d="m461.743 328.469 1.573 3.703-1.573 3.703 8.778-3.703zM23.724 40.45l-3.703-1.573-3.703 1.573 3.703-8.778z"/><text transform="translate(475.132 337.972)" font-family="'Equity Text B'" font-style="italic" font-size="24">x</text><text transform="translate(6.133 20.472)"><tspan x="0" y="0" font-family="'Equity Text B'" font-style="italic" font-size="24" letter-spacing="2">f</tspan><tspan x="9.384" y="0" font-family="'Equity Text B'" font-size="24">(</tspan><tspan x="17.231" y="0" font-family="'Equity Text B'" font-style="italic" font-size="24">x</tspan><tspan x="27.815" y="0" font-family="'Equity Text B'" font-size="24">)</tspan></text><path fill="none" stroke="#000" stroke-miterlimit="10" d="M15 82.5h5M15 132.5h5M15 182.5h5M15 232.5h5M15 282.5h5M420.5 333v5M370.5 333v5M320.5 333v5M270.5 333v5M220.5 333v5M170.5 333v5M120.5 333v5M70.5 333v5"/><text transform="translate(66.227 355.817)" font-family="'Concourse T3'" font-size="16">1</text><text transform="translate(1.6 287.746)" font-family="'Concourse T3'" font-size="16">1</text><text transform="translate(.16 237.746)" font-family="'Concourse T3'" font-size="16">2</text><text transform="translate(.48 187.746)" font-family="'Concourse T3'" font-size="16">3</text><text transform="translate(0 137.746)" font-family="'Concourse T3'" font-size="16">4</text><text transform="translate(.16 87.746)" font-family="'Concourse T3'" font-size="16">5</text><text transform="translate(116.027 355.817)" font-family="'Concourse T3'" font-size="16">2</text><text transform="translate(165.527 355.817)" font-family="'Concourse T3'" font-size="16">3</text><text transform="translate(215.227 355.817)" font-family="'Concourse T3'" font-size="16">4</text><text transform="translate(265.527 355.817)" font-family="'Concourse T3'" font-size="16">5</text><text transform="translate(315.606 355.817)" font-family="'Concourse T3'" font-size="16">6</text><text transform="translate(365.786 355.817)" font-family="'Concourse T3'" font-size="16">7</text><text transform="translate(415.766 355.817)" font-family="'Concourse T3'" font-size="16">8</text><path fill="none" stroke="#000" stroke-width="2" stroke-miterlimit="10" d="M21.021 332.172c63.936-15.889 60.672-342.328 199.576-150S405 178.01 441.667 31.672"/><circle cx="220.47" cy="182.512" r="4"/><circle cx="370.47" cy="232.512" r="4"/><circle cx="120.47" cy="132.512" r="4"/><g fill="none" stroke="#000" stroke-miterlimit="10"><path d="m120.47 132.512 1.789.894"/><path stroke-dasharray="3.9927,3.9927" d="m125.83 135.192 91.065 45.533"/><path d="m218.681 181.617 1.789.895"/></g><path fill="none" stroke="#000" stroke-miterlimit="10" stroke-dasharray="4" d="M423.919 165.676 317.581 303.824"/><text transform="translate(109.373 178.748)" font-family="'Concourse T3'" font-size="24">secant</text><text transform="translate(381.803 254.762)" font-family="'Concourse T3'" font-size="24">tangent</text></svg>