<svg xmlns="http://www.w3.org/2000/svg" viewBox="0 0 495.441 324.262" xml:space="preserve"><path fill="none" stroke="#000" stroke-miterlimit="10" d="M37.941 12.8v284.5h420.5"/><text transform="translate(181.483 319.662)" font-family="'Concourse T3'" font-size="20">reaction progress</text><text transform="translate(57.828 232.36)" font-family="'Concourse T3'" font-size="20">reactants</text><text transform="translate(358.357 119.133)" font-family="'Concourse T3'" font-size="20">products</text><text transform="translate(217.767 16.8)"><tspan x="0" y="0" font-family="'Concourse T3'" font-size="20">activated</tspan><tspan x="2.8" y="20" font-family="'Concourse T3'" font-size="20">complex</tspan></text><text transform="translate(6.354 147.705)" font-family="'Equity Text B'" font-style="italic" font-size="20">E</text><text transform="matrix(.583 0 0 .583 18.594 150.365)" font-family="'Equity Text B'" font-size="20">p</text><text transform="translate(0 177.705)" font-family="'Concourse T3'" font-size="20">(kJ)</text><path fill="none" stroke="#000" stroke-miterlimit="10" d="M37.441 213.3h103c47.016 0 52.836-169.485 112.624-169.485 53.439 0 57.143 56.485 84.656 56.485h120.72M139.941 207.8v-101"/><path fill="#000" d="m143.645 205.021-3.704 1.574-3.703-1.574 3.703 8.779zM143.645 109.578l-3.704-1.573-3.703 1.573 3.703-8.778z"/><path fill="none" stroke="#000" stroke-miterlimit="10" d="m252.946 207.83.115-158.046"/><path fill="#000" d="m256.651 205.024-3.704 1.571-3.702-1.576 3.696 8.781zM256.762 52.595l-3.702-1.576-3.704 1.571 3.71-8.776z"/><path fill="none" stroke="#000" stroke-miterlimit="10" d="M337.941 93.8v-44"/><path fill="#000" d="m341.645 91.291-3.704 1.573-3.703-1.573 3.703 8.778zM341.645 52.593l-3.704-1.574-3.703 1.574 3.703-8.779z"/><text transform="translate(257.404 132.992)" font-family="'Equity Text B'" font-style="italic" font-size="20">E</text><text transform="matrix(.583 0 0 .583 269.645 135.652)" font-family="'Equity Text B'" font-size="20">a</text><text transform="translate(342.352 76.126)" font-family="'Equity Text B'" font-style="italic" font-size="20">E</text><text transform="matrix(.583 0 0 .583 354.593 78.787)" font-family="'Equity Text B'" font-size="20">ar</text><text transform="translate(145.437 161.712)"><tspan x="0" y="0" font-family="'Equity Text B'" font-size="20" letter-spacing="2">∆</tspan><tspan x="12.8" y="0" font-family="'Equity Text B'" font-style="italic" font-size="20">H</tspan></text></svg>