<svg xmlns="http://www.w3.org/2000/svg" viewBox="0 0 500.441 325.262" xml:space="preserve"><path fill="none" stroke="#000" stroke-miterlimit="10" d="m259.948 122.138.111-93.354"/><path fill="#000" d="m263.655 119.334-3.705 1.569-3.701-1.578 3.692 8.783zM263.758 31.597l-3.701-1.578-3.705 1.569 3.714-8.774z"/><path fill="none" stroke="#000" stroke-miterlimit="10" d="M37.941 13.8v284.5h420.5"/><text transform="translate(181.108 320.662)" font-family="'Concourse T3'" font-size="20">reaction progress</text><text transform="translate(57.828 176.36)" font-family="'Concourse T3'" font-size="20">reactants</text><text transform="translate(388.408 259.133)" font-family="'Concourse T3'" font-size="20">products</text><text transform="translate(412.495 231.522)" font-family="'Concourse T3'" font-size="20" letter-spacing="-1">P</text><text transform="matrix(.583 0 0 .583 421.394 234.182)" font-family="'Concourse T3'" font-size="20">3</text><text transform="translate(82.946 148.704)" font-family="'Concourse T3'" font-size="20">R</text><text transform="matrix(.583 0 0 .583 94.346 151.365)" font-family="'Concourse T3'" font-size="20">1</text><text transform="translate(165.472 92.898)" font-family="'Concourse T3'" font-size="20">AC</text><text transform="matrix(.583 0 0 .583 192.272 95.558)" font-family="'Concourse T3'" font-size="20">1</text><text transform="translate(247.301 16.8)" font-family="'Concourse T3'" font-size="20">AC</text><text transform="matrix(.583 0 0 .583 274.101 19.46)" font-family="'Concourse T3'" font-size="20">2</text><text transform="translate(338.493 108.51)" font-family="'Concourse T3'" font-size="20">AC</text><text transform="matrix(.583 0 0 .583 365.293 111.17)" font-family="'Concourse T3'" font-size="20">3</text><text transform="translate(190.163 144.077)" font-family="'Concourse T3'" font-size="20" letter-spacing="-1">P</text><text transform="matrix(.583 0 0 .583 199.063 146.738)" font-family="'Concourse T3'" font-size="20">1</text><text transform="translate(204.31 144.077)" font-family="'Concourse T3'" font-size="20">+R</text><text transform="matrix(.583 0 0 .583 226.31 146.738)" font-family="'Concourse T3'" font-size="20">2</text><text transform="translate(288.087 172.252)" font-family="'Concourse T3'" font-size="20" letter-spacing="-1">P</text><text transform="matrix(.583 0 0 .583 296.987 174.912)" font-family="'Concourse T3'" font-size="20">2</text><text transform="translate(303.284 172.252)" font-family="'Concourse T3'" font-size="20">+R</text><text transform="matrix(.583 0 0 .583 325.283 174.912)" font-family="'Concourse T3'" font-size="20">3</text><text transform="translate(6.354 148.705)" font-family="'Equity Text B'" font-style="italic" font-size="20">E</text><text transform="matrix(.583 0 0 .583 18.594 151.365)" font-family="'Equity Text B'" font-size="20">p</text><text transform="translate(0 178.705)" font-family="'Concourse T3'" font-size="20">(kJ)</text><path fill="none" stroke="#000" stroke-miterlimit="10" d="M37.441 157.3h103c21.481 0 17.617-58.883 37.306-58.883s11.917 28.497 32.642 28.497 20.077-104.099 49.676-104.099 29.599 133.235 50.842 133.235c21.244 0 17.098-41.571 40.933-41.571S378.16 240.3 394.722 240.3h63.72M139.941 163.8v70"/><path fill="#000" d="m136.238 166.578 3.703-1.573 3.704 1.573-3.704-8.778zM136.238 231.291l3.703 1.573 3.704-1.573-3.704 8.778z"/><path fill="none" stroke="#000" stroke-miterlimit="10" d="M394.941 233.8v-205"/><path fill="#000" d="m398.645 231.291-3.704 1.573-3.703-1.573 3.703 8.778zM398.645 31.593l-3.704-1.574-3.703 1.574 3.703-8.779z"/><text transform="translate(144.693 206.346)"><tspan x="0" y="0" font-family="'Equity Text B'" font-size="20" letter-spacing="1">∆</tspan><tspan x="11.8" y="0" font-family="'Equity Text B'" font-style="italic" font-size="20">H</tspan></text><text transform="translate(261.467 86.842)" font-family="'Equity Text B'" font-style="italic" font-size="20">E</text><text transform="matrix(.583 0 0 .583 273.706 89.502)" font-family="'Equity Text B'" font-size="20">a2</text><path fill="none" stroke="#000" stroke-miterlimit="10" d="m139.947 151.83.113-123.046"/><path fill="#000" d="m143.653 149.025-3.705 1.57-3.702-1.577 3.695 8.782zM143.761 31.596l-3.702-1.577-3.705 1.57 3.712-8.775z"/><text transform="translate(144.656 56.447)" font-family="'Equity Text B'" font-style="italic" font-size="20">E</text><text transform="matrix(.583 0 0 .583 156.896 59.108)" font-family="'Equity Text B'" font-size="20">a(overall)</text><path fill="none" stroke="#000" stroke-miterlimit="10" d="M177.941 151.8v-47"/><path fill="#000" d="m181.45 149.021-3.703 1.574-3.703-1.574 3.703 8.779zM181.45 107.195l-3.703-1.574-3.703 1.574 3.703-8.779z"/><text transform="translate(170.103 175.552)" font-family="'Equity Text B'" font-style="italic" font-size="20">E</text><text transform="matrix(.583 0 0 .583 182.342 178.212)" font-family="'Equity Text B'" font-size="20">a1</text><path fill="none" stroke="#000" stroke-miterlimit="10" d="M351.941 149.8v-29"/><path fill="#000" d="m355.543 147.271-3.703 1.574-3.703-1.574 3.703 8.779zM355.543 123.257l-3.703-1.573-3.703 1.573 3.703-8.778z"/><text transform="translate(343.189 173.94)" font-family="'Equity Text B'" font-style="italic" font-size="20">E</text><text transform="matrix(.583 0 0 .583 355.429 176.6)" font-family="'Equity Text B'" font-size="20">a3</text><text transform="translate(399.086 135.627)" font-family="'Equity Text B'" font-style="italic" font-size="20">E</text><text transform="matrix(.583 0 0 .583 411.326 138.287)" font-family="'Equity Text B'" font-size="20">ar(overall)</text></svg>