<svg xmlns="http://www.w3.org/2000/svg" viewBox="0 0 859.512 421.777" xml:space="preserve"><text transform="translate(44.603 239.984)" font-family="'Concourse T3'" font-size="36">CH</text><text transform="matrix(.583 0 0 .583 93.202 246.972)" font-family="'Concourse T3'" font-size="36">2</text><path fill="none" stroke="#000" stroke-width="2" stroke-miterlimit="10" d="M.396 227.777h40"/><text transform="translate(151.603 239.984)" font-family="'Concourse T3'" font-size="36">CH</text><text transform="matrix(.583 0 0 .583 200.202 246.972)" font-family="'Concourse T3'" font-size="36">2</text><path fill="none" stroke="#000" stroke-width="2" stroke-miterlimit="10" d="M107.396 227.777h40"/><text transform="translate(258.603 239.984)" font-family="'Concourse T3'" font-size="36">CH</text><text transform="matrix(.583 0 0 .583 307.202 246.972)" font-family="'Concourse T3'" font-size="36">2</text><path fill="none" stroke="#000" stroke-width="2" stroke-miterlimit="10" d="M214.396 227.777h40"/><text transform="translate(366.603 239.984)" font-family="'Concourse T3'" font-size="36">CH</text><text transform="matrix(.583 0 0 .583 415.202 246.972)" font-family="'Concourse T3'" font-size="36">3</text><path fill="none" stroke="#000" stroke-width="2" stroke-miterlimit="10" d="M322.396 227.777h40"/><text transform="translate(179.897 193.16)" font-family="'Concourse T3'" font-size="24">n-butyl</text><text transform="translate(0 371.984)" font-family="'Concourse T3'" font-size="36">CH</text><text transform="matrix(.583 0 0 .583 48.599 378.972)" font-family="'Concourse T3'" font-size="36">3</text><path fill="none" stroke="#000" stroke-width="2" stroke-miterlimit="10" d="M120.396 378.777v40"/><text transform="translate(107 371.984)" font-family="'Concourse T3'" font-size="36">CH</text><path fill="none" stroke="#000" stroke-width="2" stroke-miterlimit="10" d="M62.396 359.777h40"/><text transform="translate(203 371.984)" font-family="'Concourse T3'" font-size="36">CH</text><text transform="matrix(.583 0 0 .583 251.599 378.972)" font-family="'Concourse T3'" font-size="36">2</text><path fill="none" stroke="#000" stroke-width="2" stroke-miterlimit="10" d="M158.396 359.777h40"/><text transform="translate(311 371.984)" font-family="'Concourse T3'" font-size="36">CH</text><text transform="matrix(.583 0 0 .583 359.599 378.972)" font-family="'Concourse T3'" font-size="36">3</text><path fill="none" stroke="#000" stroke-width="2" stroke-miterlimit="10" d="M266.396 359.777h40"/><text transform="translate(135.293 325.16)" font-family="'Concourse T3'" font-size="24">s-butyl</text><text transform="translate(421 374.984)" font-family="'Concourse T3'" font-size="36">CH</text><text transform="matrix(.583 0 0 .583 469.599 381.972)" font-family="'Concourse T3'" font-size="36">3</text><path fill="none" stroke="#000" stroke-width="2" stroke-miterlimit="10" d="M541.396 381.777v40"/><text transform="translate(528 374.984)" font-family="'Concourse T3'" font-size="36">C</text><path fill="none" stroke="#000" stroke-width="2" stroke-miterlimit="10" d="M483.396 362.777h40"/><text transform="translate(602 374.984)" font-family="'Concourse T3'" font-size="36">CH</text><text transform="matrix(.583 0 0 .583 650.599 381.972)" font-family="'Concourse T3'" font-size="36">3</text><path fill="none" stroke="#000" stroke-width="2" stroke-miterlimit="10" d="M557.396 362.777h40"/><text transform="translate(528 297.308)" font-family="'Concourse T3'" font-size="36">CH</text><text transform="matrix(.583 0 0 .583 576.599 304.295)" font-family="'Concourse T3'" font-size="36">3</text><path fill="none" stroke="#000" stroke-width="2" stroke-miterlimit="10" d="M541.396 303.777v40"/><text transform="translate(456.857 327.16)" font-family="'Concourse T3'" font-size="24">t-butyl</text><text transform="translate(597 239.984)" font-family="'Concourse T3'" font-size="36">CH</text><text transform="matrix(.583 0 0 .583 645.599 246.972)" font-family="'Concourse T3'" font-size="36">3</text><path fill="none" stroke="#000" stroke-width="2" stroke-miterlimit="10" d="M717.396 246.777v40"/><text transform="translate(704 239.984)" font-family="'Concourse T3'" font-size="36">CH</text><path fill="none" stroke="#000" stroke-width="2" stroke-miterlimit="10" d="M659.396 227.777h40"/><text transform="translate(800 239.984)" font-family="'Concourse T3'" font-size="36">CH</text><text transform="matrix(.583 0 0 .583 848.599 246.972)" font-family="'Concourse T3'" font-size="36">3</text><path fill="none" stroke="#000" stroke-width="2" stroke-miterlimit="10" d="M755.396 227.777h40"/><text transform="translate(704 319.008)" font-family="'Concourse T3'" font-size="36">CH</text><text transform="matrix(.583 0 0 .583 752.599 325.996)" font-family="'Concourse T3'" font-size="36">2</text><path fill="none" stroke="#000" stroke-width="2" stroke-miterlimit="10" d="M717.396 327.777v40"/><text transform="translate(691.657 193.16)" font-family="'Concourse T3'" font-size="24">isobutyl</text><text transform="translate(97.894 66.984)" font-family="'Concourse T3'" font-size="36">CH</text><text transform="matrix(.583 0 0 .583 146.493 73.972)" font-family="'Concourse T3'" font-size="36">2</text><path fill="none" stroke="#000" stroke-width="2" stroke-miterlimit="10" d="M53.396 54.777h40"/><text transform="translate(204.894 66.984)" font-family="'Concourse T3'" font-size="36">CH</text><text transform="matrix(.583 0 0 .583 253.493 73.972)" font-family="'Concourse T3'" font-size="36">2</text><path fill="none" stroke="#000" stroke-width="2" stroke-miterlimit="10" d="M160.396 54.777h40"/><text transform="translate(311.894 66.984)" font-family="'Concourse T3'" font-size="36">CH</text><text transform="matrix(.583 0 0 .583 360.493 73.972)" font-family="'Concourse T3'" font-size="36">3</text><path fill="none" stroke="#000" stroke-width="2" stroke-miterlimit="10" d="M267.396 54.777h40"/><text transform="translate(173.427 20.16)" font-family="'Concourse T3'" font-size="24">n-propyl</text><text transform="translate(471.406 66.984)" font-family="'Concourse T3'" font-size="36">CH</text><text transform="matrix(.583 0 0 .583 520.005 73.972)" font-family="'Concourse T3'" font-size="36">3</text><path fill="none" stroke="#000" stroke-width="2" stroke-miterlimit="10" d="M592.396 73.777v40"/><text transform="translate(578.405 66.984)" font-family="'Concourse T3'" font-size="36">CH</text><path fill="none" stroke="#000" stroke-width="2" stroke-miterlimit="10" d="M534.396 54.777h40"/><text transform="translate(674.405 66.984)" font-family="'Concourse T3'" font-size="36">CH</text><text transform="matrix(.583 0 0 .583 723.005 73.972)" font-family="'Concourse T3'" font-size="36">3</text><path fill="none" stroke="#000" stroke-width="2" stroke-miterlimit="10" d="M630.396 54.777h40"/><text transform="translate(560.302 20.19)" font-family="'Concourse T3'" font-size="24">isopropyl</text></svg>