<svg xmlns="http://www.w3.org/2000/svg" viewBox="0 0 706.279 285.913" xml:space="preserve"><path fill="none" stroke="#000" stroke-width="2" stroke-miterlimit="10" d="m402.9 229.026 43.301-25 43.301 25 43.301-25m-86.602-50v50m0 50v-50"/><text transform="translate(459.432 183.303)" font-family="'Concourse T3'" font-size="24">2,2-dimethylbutane</text><path fill="none" stroke="#000" stroke-width="2" stroke-miterlimit="10" d="m62.049 229.026 43.301-25 43.301 25 43.301-25m-86.602-50v50m43.302 75v-50"/><text transform="translate(118.582 183.303)" font-family="'Concourse T3'" font-size="24">2,3-dimethylbutane</text><path fill="none" stroke="#000" stroke-width="2" stroke-miterlimit="10" d="m532.574 75 43.301-25 43.301 25 43.301-25 43.301 25m-86.601 50V75"/><text transform="translate(539.857 29.277)" font-family="'Concourse T3'" font-size="24">3-methylpentane</text><path fill="none" stroke="#000" stroke-width="2" stroke-miterlimit="10" d="m217.006 50-43.301 25-43.301-25-43.301 25-43.302-25L.5 75"/><text transform="translate(75.874 29.277)" font-family="'Concourse T3'" font-size="24">hexane</text><path fill="none" stroke="#000" stroke-width="2" stroke-miterlimit="10" d="m267.006 75 43.301-25 43.301 25 43.301-25 43.301 25M310.308 50V0"/><text transform="translate(323.456 29.277)" font-family="'Concourse T3'" font-size="24">2-methylpentane</text></svg>