<svg xmlns="http://www.w3.org/2000/svg" viewBox="0 0 493.329 408.733"><path fill="none" stroke="#CCC" stroke-miterlimit="10" d="M426.78 32.58v160m-50-160v160m-50-160v160m-50-160v160m-50-160v160m-50-160v160m-50-160v160m-50-160v160m350 17v121m-50-121v121m-50-121v121m-50-121v121m-50-121v121m-50-121v121m-50-121v121m-50-121v121m400.5-247.5h-451m451 50h-451m451 50h-451m451 50h-451m451 50h-451"/><path fill="none" stroke="#000" stroke-miterlimit="10" d="M26.78 324.58v-286"/><path d="m30.846 321.366-3.703 1.574-3.704-1.574 3.704 8.779zm0-279.836-3.703-1.573-3.704 1.573 3.704-8.779z"/><path fill="none" stroke="#000" stroke-miterlimit="10" d="M471.28 183.08h-444"/><path d="m468.864 179.048 1.574 3.703-1.574 3.704 8.779-3.704z"/><text transform="translate(482.254 188.552)" style="font: italic 24px 'Equity B'">x</text><text transform="translate(13.254 20.472)"><tspan x="-2" y="0" style="font: italic 24px 'Equity B'">f</tspan><tspan x="9.384" y="0" style="font: 24px 'Equity B'">(</tspan><tspan x="17.231" y="0" style="font: italic 24px 'Equity B'">x</tspan><tspan x="27.815" y="0" style="font: 24px 'Equity B'">)</tspan></text><path fill="none" stroke="#000" stroke-miterlimit="10" d="M21.28 83.08h5m-5 50h5m-5 50h5m-5 50h5m-5 50h5m400.5-99.5v5m-50-5v5m-50-5v5m-50-5v5m-50-5v5m-50-5v5m-50-5v5m-50-5v5"/><text transform="translate(73.349 206.396)" style="font: 16px 'Concourse 3'">1</text><text transform="translate(9.52 138.325)" style="font: 16px 'Concourse 3'">1</text><text transform="translate(7.28 188.251)" style="font: 16px 'Concourse 3'">0</text><text transform="translate(1.44 238.177)" style="font: 16px 'Concourse 3'">−1</text><text transform="translate(0 288.103)" style="font: 16px 'Concourse 3'">−2</text><text transform="translate(8.08 88.326)" style="font: 16px 'Concourse 3'">2</text><text transform="translate(123.148 206.396)" style="font: 16px 'Concourse 3'">2</text><text transform="translate(172.648 206.396)" style="font: 16px 'Concourse 3'">3</text><text transform="translate(222.348 206.396)" style="font: 16px 'Concourse 3'">4</text><text transform="translate(272.648 206.396)" style="font: 16px 'Concourse 3'">5</text><text transform="translate(322.728 206.396)" style="font: 16px 'Concourse 3'">6</text><text transform="translate(372.908 206.396)" style="font: 16px 'Concourse 3'">7</text><text transform="translate(422.888 206.396)" style="font: 16px 'Concourse 3'">8</text><circle cx="226.448" cy="183.151" r="4"/><circle cx="51.126" cy="183.151" r="4"/><circle cx="376.908" cy="183.251" r="4"/><path fill="none" stroke="#000" stroke-width="2" stroke-miterlimit="10" d="M26.643 282.752S64.58 69.896 126.781 69.896c34.355 0 71.231 26.289 99.5 113.356 24.431 75.247 26.112 99.851 50.79 99.849 24.276-.003 38.439-99.849 99.877-99.849 47.333-.5 90-49.661 90-150.5"/><circle cx="75.763" cy="14.852" r="4"/><text transform="translate(85.448 20.472)" style="font: 24px 'Concourse 3'">zero</text><text transform="translate(159.359 20.472)" style="font: 24px 'Concourse 3'">turning point</text><path fill="#0082FF" d="M145.28 11.58h7v7h-7zm-22 55h7v7h-7zm150 213h7v7h-7z"/><text transform="translate(315.218 20.472)" style="font: 24px 'Concourse 3'">inflection point</text><path fill="#00B400" d="m304.305 10.128 4.95 4.95-4.95 4.95-4.95-4.95zm9.001 217.999 4.95 4.95-4.95 4.95-4.95-4.95zm63.6-48.312 3.46 3.46-3.46 3.461-3.46-3.46zm-134.999 48.312 4.95 4.95-4.95 4.95-4.95-4.95z"/><path fill="none" stroke="#000" stroke-miterlimit="10" d="m486.78 350.58-10 9.5h-450l-10-9.5 10-10.5h450zm0 24-10 9.5h-450l-10-9.5 10-10.5h450zm0 24-10 9.5h-450l-10-9.5 10-10.5h450zm-260-58v20m-176-20v20m326-20v20m-1 4v20m3-20v20m1-44v20m-6-20v20"/><text transform="translate(120.42 357.636)" style="font: 24px 'Concourse 3'">+</text><text transform="translate(67.043 381.303)" style="font: 20px 'Concourse 3'">inc</text><text transform="translate(73.981 404.133)" style="font: 20px 'Concourse 3'">concave down</text><text transform="translate(267.358 404.133)" style="font: 20px 'Concourse 3'">up</text><text transform="translate(323.573 404.133)" style="font: 20px 'Concourse 3'">down</text><text transform="translate(418.354 404.133)" style="font: 20px 'Concourse 3'">up</text><text transform="translate(188.946 381.303)" style="font: 20px 'Concourse 3'">dec</text><text transform="translate(317.361 381.303)" style="font: 20px 'Concourse 3'">inc</text><text transform="translate(416.955 381.303)" style="font: 20px 'Concourse 3'">inc</text><text transform="translate(421.694 357.636)" style="font: 24px 'Concourse 3'">+</text><text transform="translate(292.997 357.837)" style="font: 24px 'Concourse 3'">−</text><text transform="translate(30.194 357.837)" style="font: 24px 'Concourse 3'">−</text><path fill="none" stroke="#000" stroke-miterlimit="10" d="M126.78 364.58v20m150-20v20m-35 4v20m72-20v20m63-20v20"/></svg>
