<svg xmlns="http://www.w3.org/2000/svg" viewBox="0 0 526.432 262.166" xml:space="preserve"><path fill="none" stroke="#000" stroke-width="2" stroke-miterlimit="10" d="M126.432 38.135h385.879"/><path d="m526.432 38.135-19.898 8.131 4.722-8.131-4.722-8.129z"/><path fill="none" stroke="#000" stroke-width="2" stroke-miterlimit="10" d="M119.731 49.758 1.732 254.035h386"/><path d="m126.732 37.529-16.99 13.167 9.402-.024 4.679 8.154zm275 216.506-19.898 8.131 4.722-8.131-4.722-8.129z"/><path fill="none" stroke="#000" stroke-width="2" stroke-miterlimit="10" d="m519.372 50.364-117.94 204.278"/><path d="m526.432 38.135-16.99 13.167 9.402-.023 4.679 8.153z"/><text transform="translate(184.455 246.254)" font-family="'Equity Text B'" font-weight="bold" font-size="36">u</text><text transform="rotate(-22.587 500.503 -473.395)"><tspan x="0" y="0" font-family="'Equity Text B'" font-weight="bold" font-size="36">u</tspan><tspan x="19.943" y="0" font-family="'Equity Text B'" font-size="36">+</tspan><tspan x="39.383" y="0" font-family="'Equity Text B'" font-weight="bold" font-size="36">v</tspan></text><text transform="translate(290.018 30.708)" font-family="'Equity Text B'" font-weight="bold" font-size="36">u</text><text transform="translate(71.573 164.338)" font-family="'Equity Text B'" font-weight="bold" font-size="36">v</text><text transform="translate(472.413 164.338)" font-family="'Equity Text B'" font-weight="bold" font-size="36">v</text><path fill="none" stroke="#000" stroke-width="2" stroke-miterlimit="10" d="m1.032 254.535 524.7-215.9"/></svg>