<svg xmlns="http://www.w3.org/2000/svg" viewBox="0 0 807.596 370.358"><path fill="none" stroke="#000" stroke-miterlimit="10" stroke-dasharray="6" d="M290.178 241.78 202.24.171"/><path fill="none" stroke="#000" stroke-miterlimit="10" d="m298.415 265.179-6.74-18.518M8.98 370.187l-6.74-18.518"/><path fill="none" stroke="#000" stroke-width="2" stroke-miterlimit="10" d="M364.847 214.603 2.24 346.581 195.179 12.4"/><path d="m378.117 209.773-21.48-.835 7.218 6.026-1.656 9.253zM202.24.171l-2.908 21.298-4.681-8.155-9.4.025z"/><path fill="none" stroke="#000" stroke-miterlimit="10" d="m6.629 360.557 287.397-104.604"/><path d="m11.141 363.267.391-.921-4.542-1.919 2.246-4.39-.892-.455-2.734 5.347zm281.17-102.337-.891-.455 2.246-4.39-4.542-1.919.39-.922 5.532 2.339z"/><path fill="none" stroke="#000" stroke-width="2" stroke-miterlimit="10" d="m274.86 246.661-5.828-15.244 15.097-5.49"/><text transform="translate(75.844 168.85)" style="font: bold 36px 'Equity B'">a</text><text transform="translate(150.327 342.094)" style="font: 36px 'Equity B'">|</text><text transform="translate(164.367 342.094)" style="font: bold 36px 'Equity B'">a</text><text transform="matrix(.583 0 0 .583 183.339 349.082)" style="font: bold 36px 'Equity B'">b</text><text transform="translate(189.97 342.094)" style="font: 36px 'Equity B'">|</text><text transform="translate(159.331 272.196)" style="font: bold 36px 'Equity B'">b</text><path fill="none" stroke="#000" stroke-miterlimit="10" stroke-dasharray="6" d="M719.657 241.78 631.719.171"/><path fill="none" stroke="#000" stroke-width="2" stroke-miterlimit="10" d="M794.326 214.603 431.719 346.581 624.658 12.4"/><path d="m807.596 209.773-21.479-.835 7.217 6.026-1.656 9.253zM631.719.171l-2.908 21.298-4.68-8.155-9.401.025z"/><path fill="none" stroke="#000" stroke-width="2" stroke-miterlimit="10" d="m435.089 360.928 276.166-100.516"/><path d="m724.525 255.582-15.918 14.446 1.656-9.255-7.217-6.024z"/><path fill="none" stroke="#000" stroke-width="2" stroke-miterlimit="10" d="m704.339 246.661-5.828-15.244 15.097-5.49"/><text transform="translate(504.446 168.85)" style="font: bold 36px 'Equity B'">a</text><text transform="translate(585.807 334.76)" style="font: bold 36px 'Equity B'">a</text><text transform="matrix(.583 0 0 .583 604.778 341.75)" style="font: bold 36px 'Equity B'">b</text><text transform="translate(585.807 272.196)" style="font: bold 36px 'Equity B'">b</text></svg>
