<svg xmlns="http://www.w3.org/2000/svg" viewBox="0 0 831.414 400.707"><path fill="none" stroke="#000" stroke-width="2" stroke-miterlimit="10" d="m.707 394 190.015-190.015"/><path d="m200.707 194-8.321 19.82-2.41-9.088-9.087-2.41z"/><path fill="none" stroke="#000" stroke-width="2" stroke-miterlimit="10" d="m430.707 400 90.015-90.015"/><path d="m530.707 300-8.321 19.82-2.41-9.088-9.087-2.41z"/><path fill="none" stroke="#000" stroke-width="2" stroke-miterlimit="10" d="M290.692 384.015 480.707 194"/><path d="m280.707 394 19.82-8.321-9.088-2.411-2.41-9.086z"/><path fill="none" stroke="#000" stroke-width="2" stroke-miterlimit="10" d="M540.692 390.015 830.707 100"/><path d="m530.707 400 19.82-8.321-9.088-2.411-2.41-9.086z"/><path fill="none" stroke="#000" stroke-width="2" stroke-miterlimit="10" d="M126.707 400 516.722 9.985"/><path d="m526.707 0-8.321 19.82-2.41-9.088-9.087-2.41z"/><text transform="translate(67.238 290.286)" font-family="'Equity Text B'" font-weight="bold" font-size="36">u</text><text transform="translate(330.707 290.286)"><tspan x="0" y="0" font-family="'Equity Text B'" font-size="36">−</tspan><tspan x="19.44" y="0" font-family="'Equity Text B'" font-weight="bold" font-size="36">u</tspan></text><text transform="translate(274.34 200)"><tspan x="0" y="0" font-family="'Equity Text B'" font-size="36">2</tspan><tspan x="18.144" y="0" font-family="'Equity Text B'" font-weight="bold" font-size="36">u</tspan></text><text transform="translate(459.952 337.347)" font-family="'Equity Text B'" font-weight="bold" font-size="36">u</text><text transform="translate(435.167 322)" font-family="'Equity Text B'" font-size="36">1</text><text transform="translate(433.421 357.714)" font-family="'Equity Text B'" font-size="36">2</text><path fill="none" stroke="#000" stroke-miterlimit="10" d="M428.381 328.459h29"/><text transform="translate(657.952 231.347)" font-family="'Equity Text B'" font-weight="bold" font-size="36">u</text><text transform="translate(602.85 231.347)" font-family="'Equity Text B'" font-size="36">−</text><text transform="translate(632.34 216)" font-family="'Equity Text B'" font-size="36">3</text><text transform="translate(631.421 251.714)" font-family="'Equity Text B'" font-size="36">2</text><path fill="none" stroke="#000" stroke-miterlimit="10" d="M626.381 222.459h29"/></svg>