<svg xmlns="http://www.w3.org/2000/svg" viewBox="0 0 486.208 359.496"><path fill="none" stroke="#CCC" stroke-miterlimit="10" d="M420.5 32v301m-50-301v301m-50-301v301m-50-301v301m-50-301v301m-50-301v301m-50-301v301m-50-301v301M471 82.5H20m451 50H20m451 50H20m451 50H20m451 50H20"/><path fill="none" stroke="#000" stroke-miterlimit="10" d="M465 332.5H20.5V38"/><path d="m461.743 328.469 1.573 3.703-1.573 3.703 8.778-3.703zM23.724 40.45l-3.703-1.573-3.703 1.573 3.703-8.778z"/><text transform="translate(475.132 337.972)" style="font: italic 24px 'Equity B'">x</text><text transform="translate(6.133 20.472)"><tspan x="-2" y="0" style="font: italic 24px 'Equity B'">f</tspan><tspan x="9.384" y="0" style="font: 24px 'Equity B'">(</tspan><tspan x="17.231" y="0" style="font: italic 24px 'Equity B'">x</tspan><tspan x="27.815" y="0" style="font: 24px 'Equity B'">)</tspan></text><path fill="none" stroke="#000" stroke-miterlimit="10" d="M15 82.5h5m-5 50h5m-5 50h5m-5 50h5m-5 50h5M420.5 333v5m-50-5v5m-50-5v5m-50-5v5m-50-5v5m-50-5v5m-50-5v5m-50-5v5"/><text transform="translate(66.227 355.817)" style="font: 16px 'Concourse 3'">1</text><text transform="translate(1.6 287.746)" style="font: 16px 'Concourse 3'">1</text><text transform="translate(.16 237.746)" style="font: 16px 'Concourse 3'">2</text><text transform="translate(.48 187.746)" style="font: 16px 'Concourse 3'">3</text><text transform="translate(0 137.746)" style="font: 16px 'Concourse 3'">4</text><text transform="translate(.16 87.746)" style="font: 16px 'Concourse 3'">5</text><text transform="translate(116.027 355.817)" style="font: 16px 'Concourse 3'">2</text><text transform="translate(165.527 355.817)" style="font: 16px 'Concourse 3'">3</text><text transform="translate(215.227 355.817)" style="font: 16px 'Concourse 3'">4</text><text transform="translate(265.527 355.817)" style="font: 16px 'Concourse 3'">5</text><text transform="translate(315.606 355.817)" style="font: 16px 'Concourse 3'">6</text><text transform="translate(365.786 355.817)" style="font: 16px 'Concourse 3'">7</text><text transform="translate(415.766 355.817)" style="font: 16px 'Concourse 3'">8</text><path fill="none" stroke="#000" stroke-width="2" stroke-miterlimit="10" d="M21.021 332.172c63.936-15.889 60.672-342.328 199.576-150S405 178.01 441.667 31.672"/><circle cx="220.47" cy="182.512" r="4"/><circle cx="370.47" cy="232.512" r="4"/><circle cx="120.47" cy="132.512" r="4"/><g fill="none" stroke="#000" stroke-miterlimit="10"><path d="m120.47 132.512 1.789.894"/><path stroke-dasharray="3.9927,3.9927" d="m125.83 135.192 91.065 45.533"/><path d="m218.681 181.617 1.789.895"/></g><path fill="none" stroke="#000" stroke-miterlimit="10" stroke-dasharray="4" d="M423.919 165.676 317.581 303.824"/><text transform="translate(109.373 178.748)" style="font: 24px 'Concourse 3'">secant</text><text transform="translate(381.803 254.762)" style="font: 24px 'Concourse 3'">tangent</text></svg>
