<svg xmlns="http://www.w3.org/2000/svg" viewBox="0 0 493.329 330.145"><path fill="none" stroke="#CCC" stroke-miterlimit="10" d="M427.5 33v160m-50-160v160m-50-160v160m-50-160v160m-50-160v160m-50-160v160m-50-160v160m-50-160v160m350 17v120m-50-120v120m-50-120v120m-50-120v120m-50-120v120m-50-120v120m-50-120v120m-50-120v120M478 82.5H27m451 50H27m451 50H27m451 50H27m451 50H27"/><path fill="none" stroke="#000" stroke-miterlimit="10" d="M27.5 324V39"/><path d="m30.846 321.366-3.703 1.574-3.704-1.574 3.704 8.779zm0-279.836-3.703-1.573-3.704 1.573 3.704-8.779z"/><path fill="none" stroke="#000" stroke-miterlimit="10" d="M472 182.5H27"/><path d="m468.864 179.048 1.574 3.703-1.574 3.704 8.779-3.704z"/><text transform="translate(482.254 188.552)" style="font: italic 24px 'Equity B'">x</text><text transform="translate(24.335 20.472)" style="font: italic 24px 'Equity B'">y</text><text transform="translate(86.07 305.206)" style="font: 24px 'Equity B'">A(1,−2)</text><text transform="translate(146.958 257)"><tspan x="0" y="0" style="font: bold 24px 'Equity B'">m</tspan><tspan x="19.56" y="0" style="font: 24px 'Equity B'">=[3,2]</tspan></text><text transform="translate(308.142 114.02)" style="font: 24px 'Equity B'">P</text><path fill="none" stroke="#000" stroke-miterlimit="10" d="M22 82.5h5m-5 50h5m-5 50h5m-5 50h5m-5 50h5M427.5 183v5m-50-5v5m-50-5v5m-50-5v5m-50-5v5m-50-5v5m-50-5v5m-50-5v5"/><text transform="translate(73.349 206.396)" style="font: 16px 'Concourse 3'">1</text><text transform="translate(9.52 138.325)" style="font: 16px 'Concourse 3'">1</text><text transform="translate(7.28 188.251)" style="font: 16px 'Concourse 3'">0</text><text transform="translate(1.44 238.177)" style="font: 16px 'Concourse 3'">−1</text><text transform="translate(0 288.103)" style="font: 16px 'Concourse 3'">−2</text><text transform="translate(8.08 88.326)" style="font: 16px 'Concourse 3'">2</text><text transform="translate(123.148 206.396)" style="font: 16px 'Concourse 3'">2</text><text transform="translate(172.648 206.396)" style="font: 16px 'Concourse 3'">3</text><text transform="translate(222.348 206.396)" style="font: 16px 'Concourse 3'">4</text><text transform="translate(272.648 206.396)" style="font: 16px 'Concourse 3'">5</text><text transform="translate(322.728 206.396)" style="font: 16px 'Concourse 3'">6</text><text transform="translate(372.908 206.396)" style="font: 16px 'Concourse 3'">7</text><text transform="translate(422.888 206.396)" style="font: 16px 'Concourse 3'">8</text><path fill="none" stroke="#000" stroke-width="2" stroke-miterlimit="10" d="M438.983 42.705 37.711 308.56"/><path d="m434.596 41.169 3.357 2.219.734 3.956 5.272-7.936zM38.007 303.922l.734 3.956 3.357 2.218-9.363 1.761z"/><path fill="none" stroke="#FF5000" stroke-width="2" stroke-miterlimit="10" d="m221.87 186.547-144.8 95.865"/><path fill="#FF5000" d="m217.484 185.01 3.356 2.219.732 3.956 5.275-7.934z"/><circle cx="77.07" cy="282.412" r="4"/><circle cx="328.07" cy="116.412" r="4"/></svg>
