<svg xmlns="http://www.w3.org/2000/svg" viewBox="0 0 541.392 476" xml:space="preserve"><g fill="none" stroke="#000" stroke-miterlimit="10"><circle cx="211.392" cy="145" r="90.07"/><circle cx="211.389" cy="145" r="54.417"/><circle cx="211.392" cy="145" r="18.765"/></g><g fill="none" stroke="#000" stroke-miterlimit="10"><circle cx="211.392" cy="366" r="90.07"/><circle cx="211.389" cy="366" r="54.417"/><circle cx="211.392" cy="366" r="18.765"/></g><g fill="none" stroke="#000" stroke-miterlimit="10"><circle cx="431.392" cy="145" r="90.07"/><circle cx="431.389" cy="145" r="54.417"/><circle cx="431.392" cy="145" r="18.765"/></g><g fill="none" stroke="#000" stroke-miterlimit="10"><circle cx="431.392" cy="366" r="90.07"/><circle cx="431.389" cy="366" r="54.417"/><circle cx="431.392" cy="366" r="18.765"/></g><path fill="none" stroke="#CCC" stroke-miterlimit="10" d="M101.892 0v476M321.892 0v476M2.392 35.5h539M2.392 255.5h539"/><text transform="translate(169.512 20.915)" font-family="'Concourse T3'" font-size="24">Accurate</text><text transform="translate(11.88 155.15)" font-family="'Concourse T3'" font-size="24">Precise</text><text transform="translate(-.24 375.15)" font-family="'Concourse T3'" font-size="24">Imprecise</text><text transform="translate(383.272 20.915)" font-family="'Concourse T3'" font-size="24">Inaccurate</text><circle cx="218.892" cy="149.167" r="2.5"/><circle cx="211.892" cy="153.167" r="2.5"/><circle cx="203.892" cy="140.167" r="2.5"/><circle cx="181.892" cy="354.167" r="2.5"/><circle cx="200.892" cy="395.167" r="2.5"/><circle cx="216.892" cy="336.167" r="2.5"/><circle cx="242.892" cy="366.167" r="2.5"/><circle cx="210.892" cy="372.167" r="2.5"/><circle cx="439.892" cy="402.167" r="2.5"/><circle cx="458.892" cy="443.167" r="2.5"/><circle cx="474.892" cy="384.167" r="2.5"/><circle cx="500.892" cy="414.167" r="2.5"/><circle cx="468.892" cy="420.167" r="2.5"/><circle cx="215.892" cy="142.167" r="2.5"/><circle cx="209.892" cy="145.167" r="2.5"/><circle cx="502.892" cy="187.167" r="2.5"/><circle cx="495.892" cy="191.167" r="2.5"/><circle cx="487.892" cy="178.167" r="2.5"/><circle cx="499.892" cy="180.167" r="2.5"/><circle cx="493.892" cy="183.167" r="2.5"/></svg>