<svg xmlns="http://www.w3.org/2000/svg" viewBox="0 0 513.129 507.711" xml:space="preserve"><circle fill="#FFF" stroke="#000" stroke-miterlimit="10" cx="257.814" cy="254.376" r="200"/><text transform="translate(236.294 160.897)" font-family="'Equity Text B'" font-style="italic" font-size="24">r</text><text transform="translate(411.924 60.127)" font-family="'Equity Text B'" font-style="italic" font-size="24">v</text><text transform="translate(502.521 302.825)" font-family="'Equity Text B'" font-style="italic" font-size="24">v</text><text transform="translate(90.756 459.127)" font-family="'Equity Text B'" font-style="italic" font-size="24">v</text><text transform="translate(0 219.631)" font-family="'Equity Text B'" font-style="italic" font-size="24">v</text><text transform="translate(163.025 20.472)" font-family="'Equity Text B'" font-style="italic" font-size="24">v</text><text transform="translate(343.857 501.303)" font-family="'Equity Text B'" font-style="italic" font-size="24">v</text><g fill="none" stroke="#000" stroke-miterlimit="10"><path d="m257.064 254.809 2.599-1.5"/><path stroke-dasharray="6,6" d="m264.859 250.309 160.214-92.5"/><path d="m427.671 156.309 2.599-1.5"/></g><path fill="none" stroke="#000" stroke-width="2" stroke-miterlimit="10" d="m430.52 155.242 72 124.708"/><path d="m497.923 279.396 3.994-.489 2.42-3.215 1.183 9.454z"/><path fill="none" stroke="#000" stroke-miterlimit="10" d="m420.926 159.626 5.25 9.094 8.228-4.75"/><g fill="none" stroke="#000" stroke-miterlimit="10"><path d="m256.564 254.809 2.599 1.5"/><path stroke-dasharray="6,6" d="m264.359 259.309 160.214 92.5"/><path d="m427.171 353.309 2.599 1.5"/></g><path fill="none" stroke="#000" stroke-width="2" stroke-miterlimit="10" d="m429.52 355.242-72 124.708"/><path d="m355.702 475.692 2.42 3.215 3.994.489-7.596 5.75z"/><path fill="none" stroke="#000" stroke-miterlimit="10" d="m420.926 349.126-5.25 9.094 8.228 4.75"/><g fill="none" stroke="#000" stroke-miterlimit="10"><path d="M256.314 254.376v3"/><path stroke-dasharray="6,6" d="M256.314 263.376v185"/><path d="M256.314 451.376v3"/></g><path fill="none" stroke="#000" stroke-width="2" stroke-miterlimit="10" d="M255.814 454.376h-144"/><path d="m114.593 450.673-1.573 3.703 1.573 3.704-8.779-3.704z"/><path fill="none" stroke="#000" stroke-miterlimit="10" d="M256.814 443.876h-10.5v9.5"/><g fill="none" stroke="#000" stroke-miterlimit="10"><path d="m256.564 253.943-2.598 1.5"/><path stroke-dasharray="6,6" d="m248.77 258.443-160.214 92.5"/><path d="m85.957 352.443-2.598 1.5"/></g><path fill="none" stroke="#000" stroke-width="2" stroke-miterlimit="10" d="m83.109 353.51-72-124.707"/><path d="m15.706 229.357-3.994.489-2.42 3.214-1.183-9.453z"/><path fill="none" stroke="#000" stroke-miterlimit="10" d="m92.703 349.126-5.25-9.093-8.228 4.75"/><g fill="none" stroke="#000" stroke-miterlimit="10"><path d="m257.064 253.943-2.598-1.5"/><path stroke-dasharray="6,6" d="m249.27 249.443-160.214-92.5"/><path d="m86.457 155.443-2.598-1.5"/></g><path fill="none" stroke="#000" stroke-width="2" stroke-miterlimit="10" d="m84.109 153.51 72-124.707"/><path d="m157.927 33.06-2.42-3.214-3.994-.489 7.596-5.75z"/><path fill="none" stroke="#000" stroke-miterlimit="10" d="m92.703 159.626 5.25-9.093-8.228-4.75"/><g fill="none" stroke="#000" stroke-miterlimit="10"><path d="M257.314 254.376v-3"/><path stroke-dasharray="6,6" d="M257.314 245.376v-185"/><path d="M257.314 57.376v-3"/></g><path fill="none" stroke="#000" stroke-width="2" stroke-miterlimit="10" d="M257.814 54.376h144"/><path d="m399.036 58.08 1.573-3.704-1.573-3.703 8.778 3.703z"/><path fill="none" stroke="#000" stroke-miterlimit="10" d="M256.814 64.876h10.5v-9.5"/></svg>