<svg xmlns="http://www.w3.org/2000/svg" viewBox="0 0 488.451 338.7" xml:space="preserve"><text transform="rotate(-90 106.457 86.296)" font-family="'Concourse T3'" font-size="24">intensity</text><text transform="translate(220.784 333.18)" font-family="'Concourse T3'" font-size="24">position</text><text transform="translate(175.118 285.66)" font-family="'Concourse T3'" font-size="20">N</text><text transform="translate(325.451 285.66)" font-family="'Concourse T3'" font-size="20">N</text><text transform="translate(93.45 73.66)" font-family="'Concourse T3'" font-size="20">AN</text><text transform="rotate(-90 235.222 -18.229)" font-family="'Concourse T3'" font-size="20">central antinode</text><text transform="translate(391.45 73.66)" font-family="'Concourse T3'" font-size="20">AN</text><text transform="translate(473.451 285.66)" font-family="'Concourse T3'" font-size="20">N</text><text transform="translate(32.614 285.66)" font-family="'Concourse T3'" font-size="20">N</text><path fill="none" stroke="#000" stroke-miterlimit="10" d="M477.027 300.5h-444.5V6"/><path d="m474.336 296.95 1.573 3.703-1.573 3.703 8.778-3.703zM36.317 8.931l-3.703-1.573-3.703 1.573L32.614.153z"/><path fill="none" stroke="#000" stroke-miterlimit="10" d="M407.527 301v5M332.527 301v5M257.527 301v5M182.527 301v5M107.527 301v5"/><g fill="none" stroke="#000" stroke-miterlimit="10"><path d="M257.527 301v-3"/><path stroke-dasharray="6,6" d="M257.527 292V6"/><path d="M257.527 3V0"/></g><path fill="none" stroke="#000" stroke-width="2" stroke-miterlimit="10" d="M32.614 299.653c44.247 0 27.753-251.986 76.087-251.986s41 251.986 74.333 251.986 32-251.986 74.83-251.986 41.497 251.986 74.83 251.986 26-251.986 74.333-251.986 31.84 251.986 76.087 251.986"/><text transform="translate(396.863 328.36)"><tspan x="0" y="0" font-family="'Equity Text B'" font-size="20">∆</tspan><tspan x="10.8" y="0" font-family="'Equity Text B'" font-style="italic" font-size="20">x</tspan></text><path fill="none" stroke="#000" stroke-miterlimit="10" d="M332.527 312v21M483.527 312v21M422.027 322.5h60"/><path d="m479.129 326.59-.682-.733 3.612-3.356-3.612-3.357.682-.733 4.398 4.09z"/><path fill="none" stroke="#000" stroke-miterlimit="10" d="M333.027 322.5h59"/><path d="m336.425 326.59.682-.733-3.611-3.356 3.611-3.357-.682-.733-4.398 4.09z"/><text transform="translate(168.128 261.167)"><tspan x="0" y="0" font-family="'Equity Text B'" font-style="italic" font-size="20">n</tspan><tspan x="10.04" y="0" font-family="'Equity Text B'" font-size="20">=1</tspan></text><text transform="translate(318.462 261.167)"><tspan x="0" y="0" font-family="'Equity Text B'" font-style="italic" font-size="20">n</tspan><tspan x="10.04" y="0" font-family="'Equity Text B'" font-size="20">=1</tspan></text><text transform="translate(50.493 295.834)"><tspan x="0" y="0" font-family="'Equity Text B'" font-style="italic" font-size="20">n</tspan><tspan x="10.04" y="0" font-family="'Equity Text B'" font-size="20">=2</tspan></text><text transform="translate(432.827 295.834)"><tspan x="0" y="0" font-family="'Equity Text B'" font-style="italic" font-size="20">n</tspan><tspan x="10.04" y="0" font-family="'Equity Text B'" font-size="20">=2</tspan></text></svg>