<svg xmlns="http://www.w3.org/2000/svg" viewBox="0 0 533.692 237.306" xml:space="preserve"><path fill="#EEE" d="M355.502 177.004v46.871h122.059l-.099-131.606z"/><path fill="none" stroke="#000" stroke-miterlimit="10" d="M289 31.375v192.5h226.5"/><path fill="#000" d="M285.297 34.154 289 32.581l3.703 1.573L289 25.375zM512.722 227.579l1.573-3.704-1.573-3.703 8.778 3.703z"/><text transform="translate(525.292 230.898)" font-family="'Equity Text B'" font-style="italic" font-size="24">t</text><text transform="translate(283 20.472)" font-family="'Equity Text B'" font-weight="bold" font-size="24">v</text><circle cx="355.862" cy="176.969" r="2.5"/><circle cx="476.862" cy="92.269" r="2.5"/><text transform="translate(319.19 158.889)" font-family="'Equity Text B'" font-size="24">(</text><text transform="translate(327.638 158.889)" font-family="'Equity Text B'" font-style="italic" font-size="24">t</text><text transform="matrix(.583 0 0 .583 334.861 164.881)" font-family="'Equity Text B'" font-size="24">1</text><text transform="translate(340.556 158.889)" font-family="'Equity Text B'" font-size="24">,</text><text transform="translate(346.964 158.889)" font-family="'Equity Text B'" font-weight="bold" font-size="24" letter-spacing="-1">v</text><text transform="matrix(.583 0 0 .583 357.764 164.881)" font-family="'Equity Text B'" font-size="24">1</text><text transform="translate(363.46 158.889)" font-family="'Equity Text B'" font-size="24">)</text><text transform="translate(433.713 75.484)" font-family="'Equity Text B'" font-size="24">(</text><text transform="translate(442.161 75.484)" font-family="'Equity Text B'" font-style="italic" font-size="24">t</text><text transform="matrix(.583 0 0 .583 449.385 81.477)" font-family="'Equity Text B'" font-size="24">2</text><text transform="translate(456.437 75.484)" font-family="'Equity Text B'" font-size="24">,</text><text transform="translate(462.845 75.484)" font-family="'Equity Text B'" font-weight="bold" font-size="24" letter-spacing="-1">v</text><text transform="matrix(.583 0 0 .583 473.644 81.477)" font-family="'Equity Text B'" font-size="24">2</text><text transform="translate(480.697 75.484)" font-family="'Equity Text B'" font-size="24">)</text><g fill="none" stroke="#000" stroke-miterlimit="10"><path d="M356 224.375v-2"/><path stroke-dasharray="4,4" d="M356 218.375v-37"/><path d="M356 179.375v-2"/></g><g fill="none" stroke="#000" stroke-miterlimit="10"><path d="M477 224.375v-2"/><path stroke-dasharray="4,4" d="M477 217.375v-121"/><path d="M477 94.375v-2"/></g><path fill="none" stroke="#000" stroke-width="2" stroke-miterlimit="10" d="M289 223.875 521.5 60.889"/><text transform="translate(405.25 195.862)"><tspan x="0" y="0" font-family="'Equity Text B'" font-size="24">∆</tspan><tspan x="12.96" y="0" font-family="'Equity Text B'" font-weight="bold" font-size="24">d</tspan></text><path fill="none" stroke="#000" stroke-miterlimit="10" d="M6 31.375v192.5h226.5"/><path fill="#000" d="M2.297 34.154 6 32.581l3.703 1.573L6 25.375zM229.722 227.579l1.573-3.704-1.573-3.703 8.778 3.703z"/><text transform="translate(242.292 230.898)" font-family="'Equity Text B'" font-style="italic" font-size="24">t</text><text transform="translate(0 20.472)" font-family="'Equity Text B'" font-weight="bold" font-size="24">d</text><path fill="none" stroke="#000" stroke-width="2" stroke-miterlimit="10" d="M6 155.375c101.293 0 186.638-43.103 232.5-126.724"/><circle cx="72.862" cy="148.669" r="2.5"/><circle cx="193.862" cy="86.669" r="2.5"/><text transform="translate(57.5 176.375)" font-family="'Equity Text B'" font-size="24">(</text><text transform="translate(65.948 176.375)" font-family="'Equity Text B'" font-style="italic" font-size="24">t</text><text transform="matrix(.583 0 0 .583 73.172 182.367)" font-family="'Equity Text B'" font-size="24">1</text><text transform="translate(78.866 176.375)" font-family="'Equity Text B'" font-size="24">,</text><text transform="translate(85.275 176.375)" font-family="'Equity Text B'" font-weight="bold" font-size="24">d</text><text transform="matrix(.583 0 0 .583 98.282 182.367)" font-family="'Equity Text B'" font-size="24">1</text><text transform="translate(103.977 176.375)" font-family="'Equity Text B'" font-size="24">)</text><text transform="translate(183.5 115.375)" font-family="'Equity Text B'" font-size="24">(</text><text transform="translate(191.948 115.375)" font-family="'Equity Text B'" font-style="italic" font-size="24">t</text><text transform="matrix(.583 0 0 .583 199.172 121.367)" font-family="'Equity Text B'" font-size="24">2</text><text transform="translate(206.224 115.375)" font-family="'Equity Text B'" font-size="24">,</text><text transform="translate(212.631 115.375)" font-family="'Equity Text B'" font-weight="bold" font-size="24">d</text><text transform="matrix(.583 0 0 .583 225.64 121.367)" font-family="'Equity Text B'" font-size="24">2</text><text transform="translate(232.692 115.375)" font-family="'Equity Text B'" font-size="24">)</text><g fill="none" stroke="#000" stroke-miterlimit="10"><path d="m72.862 148.669 1.78-.912"/><path stroke-dasharray="3.9988,3.9988" d="m78.201 145.933 112.102-57.441"/><path d="m192.082 87.581 1.78-.912"/></g><text transform="translate(116.119 103.512)" font-family="'Equity Text B'" font-weight="bold" font-size="24" letter-spacing="-1">v</text><text transform="matrix(.583 0 0 .583 126.919 109.504)" font-family="'Equity Text B'" font-size="24">av</text></svg>