<svg xmlns="http://www.w3.org/2000/svg" viewBox="0 0 488.451 338.7" xml:space="preserve"><text transform="rotate(-90 106.457 86.296)" font-family="'Concourse T3'" font-size="24">intensity</text><text transform="translate(220.784 333.18)" font-family="'Concourse T3'" font-size="24">position</text><text transform="translate(176.118 285.66)" font-family="'Concourse T3'" font-size="20">N</text><text transform="translate(324.451 285.66)" font-family="'Concourse T3'" font-size="20">N</text><text transform="translate(132.118 112.327)" font-family="'Concourse T3'" font-size="20">AN</text><text transform="rotate(-90 235.222 -18.229)" font-family="'Concourse T3'" font-size="20">central antinode</text><text transform="translate(356.784 112.326)" font-family="'Concourse T3'" font-size="20">AN</text><text transform="translate(432.118 187.66)" font-family="'Concourse T3'" font-size="20">AN</text><text transform="translate(56.118 187.66)" font-family="'Concourse T3'" font-size="20">AN</text><text transform="translate(401.65 285.66)" font-family="'Concourse T3'" font-size="20">N</text><text transform="translate(99.18 285.66)" font-family="'Concourse T3'" font-size="20">N</text><path fill="none" stroke="#000" stroke-miterlimit="10" d="M477 300.5H32.5V6"/><path d="m474.336 296.95 1.573 3.703-1.573 3.703 8.778-3.703zM36.317 8.931l-3.703-1.573-3.703 1.573L32.614.153z"/><path fill="none" stroke="#000" stroke-miterlimit="10" d="M407.5 301v5m-75-5v5m-75-5v5m-75-5v5m-75-5v5"/><g fill="none" stroke="#000" stroke-miterlimit="10"><path d="M257.5 301v-3"/><path stroke-dasharray="6,6" d="M257.5 292V6"/><path d="M257.5 3V0"/></g><path fill="none" stroke="#000" stroke-width="2" stroke-miterlimit="10" d="M32.614 299.653c24.553 0 10.781-106.9 37.1-106.9s16.347 106.9 38.014 106.9 6.333-183.986 38-183.986 9.667 183.986 37.306 183.986 34.361-251.986 74.83-251.986 47.191 251.986 74.83 251.986c27.639 0 5.639-183.986 37.306-183.986s16.333 183.986 38 183.986 11.694-106.9 38.014-106.9 12.548 106.9 37.1 106.9"/><text transform="translate(360.277 328.36)"><tspan x="0" y="0" font-family="'Equity Text B'" font-size="20">∆</tspan><tspan x="10.8" y="0" font-family="'Equity Text B'" font-style="italic" font-size="20">y</tspan></text><path fill="none" stroke="#000" stroke-miterlimit="10" d="M332.5 312v21m75-21v21M385 322.365l21.443.129"/><path d="m403.105 326.563-.678-.736 3.632-3.335-3.592-3.379.687-.728 4.373 4.116z"/><path fill="none" stroke="#000" stroke-miterlimit="10" d="m333.112 322.494 21.888-.129"/><path d="m336.449 326.564.678-.736-3.631-3.336 3.592-3.378-.687-.729-4.374 4.116z"/></svg>