<svg xmlns="http://www.w3.org/2000/svg" viewBox="0 0 284 168" xml:space="preserve"><path fill="none" stroke="#000" stroke-miterlimit="10" d="M128.5 81 190 19.5M171.289 38.461l3.673-3.673"/><path d="m173.032 41.216-.907-.423 2.768-5.936-5.936 2.768-.423-.906 8.427-3.93z"/><path fill="none" stroke="#000" stroke-miterlimit="10" d="M174.5 81 236 19.5M217.289 38.461l3.673-3.673"/><path d="m219.032 41.216-.907-.423 2.768-5.936-5.936 2.768-.423-.906 8.427-3.93z"/><text transform="translate(239.3 131.032)" font-family="'Equity Text B'" font-style="italic" font-size="24">t</text><path fill="none" stroke="#000" stroke-width="2" stroke-miterlimit="10" d="M0 81h284M0 167h284"/><path fill="none" stroke="#000" stroke-miterlimit="10" d="M243.5 136v30"/><path d="m239.41 162.602.733-.682 3.356 3.612 3.357-3.612.733.682-4.09 4.398z"/><path fill="none" stroke="#000" stroke-miterlimit="10" d="M243.5 82v31"/><path d="m239.41 85.398.733.682 3.356-3.612 3.357 3.612.733-.682-4.09-4.398z"/><text transform="translate(0 107.5)" font-family="'Concourse T3'" font-size="24">slow</text><text transform="translate(0 68.5)" font-family="'Concourse T3'" font-size="24">fast</text><text transform="translate(107 55)" font-family="'Georgia'" font-size="24">θ</text><text transform="matrix(.583 0 0 .583 120.348 58.992)" font-family="'Georgia'" font-size="24">i</text><path fill="none" stroke="#000" stroke-miterlimit="10" d="M122.5 81v-7.5h5.5M128.5 81 51.75 4.25M80.289 32.789l3.673 3.673"/><path d="m77.534 34.532.423-.907 5.936 2.768-2.768-5.936.906-.423 3.93 8.427z"/><path fill="none" stroke="#000" stroke-miterlimit="10" d="M151.727 167 128.75 81.25M139.196 120.236l1.345 5.017"/><path d="m135.938 120.367.82-.574 3.757 5.366.571-6.526.996.087-.81 9.262z"/><path fill="none" stroke="#000" stroke-miterlimit="10" d="m151.727 167 22.976-85.75M162.181 127.982l1.345-5.017"/><path d="m165.068 129.498-.997.087-.571-6.526-3.757 5.366-.819-.573 5.333-7.616z"/><path fill="none" stroke="#000" stroke-miterlimit="10" stroke-dasharray="3" d="M128.5 128V13"/><text transform="translate(196.45 16.59)" font-family="'Concourse T3'" font-size="18">1</text><circle fill="none" stroke="#000" stroke-miterlimit="10" cx="200.5" cy="10" r="9.5"/><text transform="translate(241.64 16.59)" font-family="'Concourse T3'" font-size="18">2</text><circle fill="none" stroke="#000" stroke-miterlimit="10" cx="246.5" cy="10.3" r="9.5"/></svg>