<svg xmlns="http://www.w3.org/2000/svg" viewBox="0 0 469.223 422.637" xml:space="preserve"><path fill="none" stroke="#000" stroke-miterlimit="10" d="M24.756 292.29h428M185.256 25.79v368"/><path fill="none" stroke="#000" stroke-width="2" stroke-miterlimit="10" d="M184.756 291.79 81.421 59.694"/><path fill="#000" d="m90.471 61.813-8.045.138-5.487 5.887-.375-19.052z"/><path fill="none" stroke="#000" stroke-width="2" stroke-miterlimit="10" d="m184.756 291.79 131.919-95.845"/><path fill="#000" d="m316.484 205.238-1.808-7.841-6.899-4.142 18.557-4.328z"/><text transform="translate(52.47 43.689)" font-family="'Concourse T3'" font-size="24">99 m</text><text transform="translate(176.256 20.16)" font-family="'Concourse T3'" font-weight="bold" font-size="24">N</text><text transform="translate(179.136 417.118)" font-family="'Concourse T3'" font-weight="bold" font-size="24">S</text><text transform="translate(456.983 299.61)" font-family="'Concourse T3'" font-weight="bold" font-size="24">E</text><text transform="translate(0 299.61)" font-family="'Concourse T3'" font-weight="bold" font-size="24">W</text><text transform="translate(328.855 184.865)" font-family="'Concourse T3'" font-size="24">65 m</text><text transform="translate(244.09 310.199)" font-family="'Concourse T3'" font-size="18">+cos</text><text transform="translate(191.423 154.955)" font-family="'Concourse T3'" font-size="18">+cos</text><text transform="translate(134.09 43.689)" font-family="'Concourse T3'" font-size="18">–sin</text><text transform="translate(332.756 250.865)" font-family="'Concourse T3'" font-size="18">–sin</text><text transform="translate(279.276 205.874)" font-family="'Equity Text B'" font-style="italic" font-size="24">a</text><text transform="translate(104.486 83.185)" font-family="'Equity Text B'" font-style="italic" font-size="24">b</text><text transform="translate(229.622 284.386)" font-family="'Concourse T3'" font-size="24">36º</text><text transform="translate(146.067 193.269)" font-family="'Concourse T3'" font-size="24">24º</text><g fill="none" stroke="#000" stroke-miterlimit="10"><path d="M326.256 188.79v3"/><path stroke-dasharray="6,6" d="M326.256 197.79v89"/><path d="M326.256 289.79v3"/></g><g fill="none" stroke="#000" stroke-miterlimit="10"><path d="M76.756 48.29h3"/><path stroke-dasharray="6,6" d="M85.756 48.29h93"/><path d="M181.756 48.29h3"/></g></svg>