<svg xmlns="http://www.w3.org/2000/svg" viewBox="0 0 524 251.476" xml:space="preserve"><path fill="none" stroke="#000" stroke-width="2" stroke-miterlimit="10" d="M0 238.623h524"/><path fill="none" stroke="#000" stroke-miterlimit="10" d="m501 251.123 12.5-12.5m-27.5 12.5 12.5-12.5m-27.5 12.5 12.5-12.5m-27.5 12.5 12.5-12.5m-27.5 12.5 12.5-12.5m-27.5 12.5 12.5-12.5m-27.5 12.5 12.5-12.5m-27.5 12.5 12.5-12.5m-27.5 12.5 12.5-12.5m-27.5 12.5 12.5-12.5m-27.5 12.5 12.5-12.5m-27.5 12.5 12.5-12.5m-27.5 12.5 12.5-12.5m-27.5 12.5 12.5-12.5m-27.5 12.5 12.5-12.5m-27.5 12.5 12.5-12.5m-27.5 12.5 12.5-12.5m-27.5 12.5 12.5-12.5m-27.5 12.5 12.5-12.5m-27.5 12.5 12.5-12.5m-27.5 12.5 12.5-12.5m-27.5 12.5 12.5-12.5m-27.5 12.5 12.5-12.5m-27.5 12.5 12.5-12.5m-27.5 12.5 12.5-12.5m-27.5 12.5 12.5-12.5m-27.5 12.5 12.5-12.5m-27.5 12.5 12.5-12.5m-27.5 12.5 12.5-12.5m-27.5 12.5 12.5-12.5m-27.5 12.5 12.5-12.5m-27.5 12.5 12.5-12.5m-27.5 12.5 12.5-12.5M6 251.123l12.5-12.5"/><path fill="none" stroke="#000" stroke-miterlimit="10" stroke-dasharray="10" d="M262 238.623v-238"/><path fill="none" stroke="#000" stroke-miterlimit="10" d="M262 229.123h-9.296v8.5"/><text transform="rotate(-90 184.049 -68.655)" font-family="'Concourse T3'" font-size="36">normal</text><path fill="none" stroke="#000" stroke-width="2" stroke-miterlimit="10" d="m72.504.623 189.496 238m189.496-238L262 238.623"/><text transform="translate(223.307 174.27)" font-family="'Georgia'" font-style="italic" font-size="36">θ</text><text transform="matrix(.583 0 0 .583 243.153 183.259)" font-family="'Georgia'" font-size="36">i</text><text transform="translate(273.507 174.27)" font-family="'Georgia'" font-style="italic" font-size="36">θ</text><text transform="matrix(.583 0 0 .583 293.353 183.258)" font-family="'Georgia'" font-size="36">r</text><path fill="none" stroke="#000" stroke-miterlimit="10" d="m153.85 110.394 10 5-3-11m198.3 4.8 10-5-3 11"/></svg>